Raleway-ExtraBold-OTF.ufo
<glyph name="ampersand" format="1">
  <advance width="729"/>
  <unicode hex="0026"/>
  <outline>
    <contour>
      <point x="732" y="0" type="line"/>
      <point x="579" y="160" type="line"/>
      <point x="617" y="223"/>
      <point x="641" y="303"/>
      <point x="642" y="401" type="curve"/>
      <point x="513" y="401" type="line"/>
      <point x="513" y="346"/>
      <point x="502" y="298"/>
      <point x="485" y="258" type="curve"/>
      <point x="374" y="376" type="line"/>
      <point x="437" y="424"/>
      <point x="482" y="481"/>
      <point x="482" y="556" type="curve" smooth="yes"/>
      <point x="482" y="668"/>
      <point x="384" y="719"/>
      <point x="283" y="719" type="curve" smooth="yes"/>
      <point x="169" y="719"/>
      <point x="83" y="652"/>
      <point x="83" y="543" type="curve" smooth="yes"/>
      <point x="83" y="493"/>
      <point x="101" y="456"/>
      <point x="149" y="398" type="curve"/>
      <point x="90" y="353"/>
      <point x="38" y="293"/>
      <point x="38" y="208" type="curve" smooth="yes"/>
      <point x="38" y="97"/>
      <point x="127" y="-10"/>
      <point x="282" y="-10" type="curve" smooth="yes"/>
      <point x="349" y="-10"/>
      <point x="417" y="10"/>
      <point x="475" y="50" type="curve"/>
      <point x="522" y="0" type="line"/>
    </contour>
    <contour>
      <point x="299" y="115" type="curve" smooth="yes"/>
      <point x="230" y="115"/>
      <point x="191" y="164"/>
      <point x="191" y="207" type="curve" smooth="yes"/>
      <point x="191" y="239"/>
      <point x="213" y="266"/>
      <point x="247" y="292" type="curve"/>
      <point x="388" y="142" type="line"/>
      <point x="360" y="124"/>
      <point x="329" y="115"/>
    </contour>
    <contour>
      <point x="228" y="549" type="curve" smooth="yes"/>
      <point x="228" y="579"/>
      <point x="250" y="602"/>
      <point x="283" y="602" type="curve" smooth="yes"/>
      <point x="314" y="602"/>
      <point x="335" y="583"/>
      <point x="335" y="554" type="curve" smooth="yes"/>
      <point x="335" y="525"/>
      <point x="315" y="506"/>
      <point x="274" y="480" type="curve"/>
      <point x="240" y="515"/>
      <point x="228" y="528"/>
    </contour>
  </outline>
</glyph>
<glyph name="five" format="1">
  <advance width="558"/>
  <unicode hex="0035"/>
  <outline>
    <contour>
      <point x="294" y="322" type="curve" smooth="yes"/>
      <point x="256" y="322"/>
      <point x="232" y="313"/>
      <point x="224" y="304" type="curve"/>
      <point x="244" y="425" type="line"/>
      <point x="481" y="425" type="line"/>
      <point x="481" y="571" type="line"/>
      <point x="128" y="571" type="line"/>
      <point x="128" y="571"/>
      <point x="47" y="148"/>
      <point x="45" y="139" type="curve"/>
      <point x="184" y="139" type="line"/>
      <point x="202" y="168"/>
      <point x="235" y="185"/>
      <point x="271" y="185" type="curve" smooth="yes"/>
      <point x="326" y="185"/>
      <point x="365" y="147"/>
      <point x="365" y="90" type="curve" smooth="yes"/>
      <point x="365" y="30"/>
      <point x="324" y="-9"/>
      <point x="262" y="-9" type="curve" smooth="yes"/>
      <point x="209" y="-9"/>
      <point x="154" y="21"/>
      <point x="116" y="68" type="curve"/>
      <point x="27" y="-31" type="line"/>
      <point x="70" y="-105"/>
      <point x="158" y="-149"/>
      <point x="261" y="-149" type="curve" smooth="yes"/>
      <point x="418" y="-149"/>
      <point x="529" y="-50"/>
      <point x="529" y="93" type="curve" smooth="yes"/>
      <point x="529" y="228"/>
      <point x="430" y="322"/>
    </contour>
  </outline>
</glyph>
<glyph name="six" format="1">
  <advance width="608"/>
  <unicode hex="0036"/>
  <outline>
    <contour>
      <point x="569" y="239" type="curve" smooth="yes"/>
      <point x="569" y="372"/>
      <point x="462" y="473"/>
      <point x="321" y="473" type="curve" smooth="yes"/>
      <point x="263" y="473"/>
      <point x="217" y="452"/>
      <point x="190" y="416" type="curve"/>
      <point x="193" y="518"/>
      <point x="242" y="577"/>
      <point x="320" y="577" type="curve" smooth="yes"/>
      <point x="373" y="577"/>
      <point x="422" y="552"/>
      <point x="455" y="509" type="curve"/>
      <point x="545" y="611" type="line"/>
      <point x="488" y="679"/>
      <point x="410" y="716"/>
      <point x="323" y="716" type="curve" smooth="yes"/>
      <point x="150" y="716"/>
      <point x="43" y="575"/>
      <point x="43" y="327" type="curve" smooth="yes"/>
      <point x="43" y="115"/>
      <point x="142" y="-10"/>
      <point x="307" y="-10" type="curve" smooth="yes"/>
      <point x="456" y="-10"/>
      <point x="569" y="100"/>
    </contour>
    <contour>
      <point x="307" y="125" type="curve" smooth="yes"/>
      <point x="248" y="125"/>
      <point x="197" y="177"/>
      <point x="197" y="239" type="curve" smooth="yes"/>
      <point x="197" y="299"/>
      <point x="246" y="347"/>
      <point x="307" y="347" type="curve" smooth="yes"/>
      <point x="367" y="347"/>
      <point x="417" y="299"/>
      <point x="417" y="239" type="curve" smooth="yes"/>
      <point x="417" y="177"/>
      <point x="366" y="125"/>
    </contour>
  </outline>
</glyph>
<glyph name="greater" format="1">
  <advance width="518"/>
  <unicode hex="003E"/>
  <outline>
    <contour>
      <point x="486" y="293" type="line"/>
      <point x="63" y="549" type="line"/>
      <point x="63" y="379" type="line"/>
      <point x="254" y="259" type="line"/>
      <point x="63" y="146" type="line"/>
      <point x="63" y="-33" type="line"/>
      <point x="486" y="217" type="line"/>
    </contour>
  </outline>
</glyph>
<glyph name="B" format="1">
  <advance width="684"/>
  <unicode hex="0042"/>
  <outline>
    <contour>
      <point x="655" y="182" type="curve" smooth="yes"/>
      <point x="655" y="278"/>
      <point x="604" y="340"/>
      <point x="523" y="364" type="curve"/>
      <point x="590" y="394"/>
      <point x="625" y="461"/>
      <point x="625" y="528" type="curve" smooth="yes"/>
      <point x="625" y="618"/>
      <point x="563" y="710"/>
      <point x="463" y="710" type="curve" smooth="yes"/>
      <point x="68" y="710" type="line"/>
      <point x="68" y="0" type="line"/>
      <point x="414" y="0" type="line" smooth="yes"/>
      <point x="546" y="0"/>
      <point x="655" y="60"/>
    </contour>
    <contour>
      <point x="488" y="215" type="curve" smooth="yes"/>
      <point x="488" y="170"/>
      <point x="456" y="139"/>
      <point x="414" y="139" type="curve" smooth="yes"/>
      <point x="232" y="139" type="line"/>
      <point x="232" y="294" type="line"/>
      <point x="421" y="294" type="line" smooth="yes"/>
      <point x="460" y="294"/>
      <point x="488" y="259"/>
    </contour>
    <contour>
      <point x="399" y="570" type="line"/>
      <point x="434" y="570"/>
      <point x="462" y="544"/>
      <point x="462" y="497" type="curve" smooth="yes"/>
      <point x="462" y="447"/>
      <point x="429" y="423"/>
      <point x="393" y="423" type="curve" smooth="yes"/>
      <point x="232" y="423" type="line"/>
      <point x="232" y="570" type="line"/>
    </contour>
  </outline>
</glyph>
<glyph name="E" format="1">
  <advance width="599"/>
  <unicode hex="0045"/>
  <outline>
    <contour>
      <point x="321" y="709" type="move" name="top"/>
    </contour>
    <contour>
      <point x="321" y="0" type="move" name="bottom"/>
    </contour>
    <contour>
      <point x="232" y="144" type="line"/>
      <point x="232" y="295" type="line"/>
      <point x="512" y="295" type="line"/>
      <point x="512" y="428" type="line"/>
      <point x="232" y="428" type="line"/>
      <point x="232" y="566" type="line"/>
      <point x="558" y="566" type="line"/>
      <point x="558" y="710" type="line"/>
      <point x="68" y="710" type="line"/>
      <point x="68" y="0" type="line"/>
      <point x="567" y="0" type="line"/>
      <point x="567" y="144" type="line"/>
    </contour>
  </outline>
</glyph>
<glyph name="H" format="1">
  <advance width="747"/>
  <unicode hex="0048"/>
  <outline>
    <contour>
      <point x="377" y="709" type="move" name="top"/>
    </contour>
    <contour>
      <point x="515" y="710" type="line"/>
      <point x="515" y="435" type="line"/>
      <point x="232" y="435" type="line"/>
      <point x="232" y="710" type="line"/>
      <point x="68" y="710" type="line"/>
      <point x="68" y="0" type="line"/>
      <point x="232" y="0" type="line"/>
      <point x="232" y="291" type="line"/>
      <point x="515" y="291" type="line"/>
      <point x="515" y="0" type="line"/>
      <point x="679" y="0" type="line"/>
      <point x="679" y="710" type="line"/>
    </contour>
  </outline>
</glyph>
<glyph name="M" format="1">
  <advance width="860"/>
  <unicode hex="004D"/>
  <outline>
    <contour>
      <point x="792" y="0" type="line"/>
      <point x="792" y="710" type="line"/>
      <point x="615" y="710" type="line"/>
      <point x="430" y="339" type="line"/>
      <point x="246" y="710" type="line"/>
      <point x="68" y="710" type="line"/>
      <point x="68" y="0" type="line"/>
      <point x="232" y="0" type="line"/>
      <point x="232" y="425" type="line"/>
      <point x="386" y="116" type="line"/>
      <point x="474" y="116" type="line"/>
      <point x="628" y="425" type="line"/>
      <point x="628" y="0" type="line"/>
    </contour>
  </outline>
</glyph>
<glyph name="V" format="1">
  <advance width="674"/>
  <unicode hex="0056"/>
  <outline>
    <contour>
      <point x="-3" y="710" type="line"/>
      <point x="269" y="0" type="line"/>
      <point x="407" y="0" type="line"/>
      <point x="676" y="710" type="line"/>
      <point x="503" y="710" type="line"/>
      <point x="338" y="206" type="line"/>
      <point x="171" y="710" type="line"/>
    </contour>
  </outline>
</glyph>
<glyph name="bracketleft" format="1">
  <advance width="341"/>
  <unicode hex="005B"/>
  <outline>
    <contour>
      <point x="295" y="-40" type="line"/>
      <point x="295" y="87" type="line"/>
      <point x="228" y="87" type="line"/>
      <point x="228" y="613" type="line"/>
      <point x="295" y="613" type="line"/>
      <point x="295" y="740" type="line"/>
      <point x="80" y="740" type="line"/>
      <point x="80" y="-40" type="line"/>
    </contour>
  </outline>
</glyph>
<glyph name="i" format="1">
  <advance width="270"/>
  <unicode hex="0069"/>
  <outline>
    <contour>
      <point x="215" y="0" type="line"/>
      <point x="215" y="525" type="line"/>
      <point x="55" y="525" type="line"/>
      <point x="55" y="0" type="line"/>
    </contour>
    <contour>
      <point x="215" y="585" type="line"/>
      <point x="215" y="730" type="line"/>
      <point x="55" y="730" type="line"/>
      <point x="55" y="585" type="line"/>
    </contour>
  </outline>
</glyph>
<glyph name="j" format="1">
  <advance width="274"/>
  <unicode hex="006A"/>
  <outline>
    <contour>
      <point x="27" y="-202" type="curve" smooth="yes"/>
      <point x="137" y="-202"/>
      <point x="220" y="-118"/>
      <point x="220" y="3" type="curve" smooth="yes"/>
      <point x="220" y="525" type="line"/>
      <point x="60" y="525" type="line"/>
      <point x="60" y="-9" type="line" smooth="yes"/>
      <point x="60" y="-42"/>
      <point x="37" y="-64"/>
      <point x="7" y="-64" type="curve" smooth="yes"/>
      <point x="-13" y="-64"/>
      <point x="-33" y="-57"/>
      <point x="-47" y="-43" type="curve"/>
      <point x="-114" y="-152" type="line"/>
      <point x="-76" y="-185"/>
      <point x="-26" y="-202"/>
    </contour>
    <contour>
      <point x="220" y="585" type="line"/>
      <point x="220" y="730" type="line"/>
      <point x="60" y="730" type="line"/>
      <point x="60" y="585" type="line"/>
    </contour>
  </outline>
</glyph>
<glyph name="p" format="1">
  <advance width="640"/>
  <unicode hex="0070"/>
  <outline>
    <contour>
      <point x="387" y="-10" type="curve" smooth="yes"/>
      <point x="519" y="-10"/>
      <point x="614" y="108"/>
      <point x="614" y="264" type="curve" smooth="yes"/>
      <point x="614" y="416"/>
      <point x="511" y="535"/>
      <point x="370" y="535" type="curve" smooth="yes"/>
      <point x="291" y="535"/>
      <point x="232" y="499"/>
      <point x="194" y="440" type="curve"/>
      <point x="194" y="525" type="line"/>
      <point x="55" y="525" type="line"/>
      <point x="55" y="-213" type="line"/>
      <point x="215" y="-213" type="line"/>
      <point x="215" y="85" type="line"/>
      <point x="247" y="26"/>
      <point x="308" y="-10"/>
    </contour>
    <contour>
      <point x="333" y="125" type="curve" smooth="yes"/>
      <point x="284" y="125"/>
      <point x="236" y="166"/>
      <point x="215" y="219" type="curve"/>
      <point x="215" y="327" type="line"/>
      <point x="236" y="371"/>
      <point x="281" y="399"/>
      <point x="325" y="399" type="curve" smooth="yes"/>
      <point x="398" y="399"/>
      <point x="451" y="342"/>
      <point x="451" y="265" type="curve" smooth="yes"/>
      <point x="451" y="190"/>
      <point x="402" y="125"/>
    </contour>
  </outline>
</glyph>
<glyph name="twosuperior" format="1">
  <advance width="428"/>
  <unicode hex="00B2"/>
  <outline>
    <contour>
      <point x="382" y="383" type="line"/>
      <point x="382" y="474" type="line"/>
      <point x="182" y="474" type="line"/>
      <point x="182" y="503"/>
      <point x="210" y="525"/>
      <point x="268" y="542" type="curve" smooth="yes"/>
      <point x="319" y="557"/>
      <point x="396" y="591"/>
      <point x="396" y="680" type="curve" smooth="yes"/>
      <point x="396" y="768"/>
      <point x="336" y="818"/>
      <point x="225" y="818" type="curve" smooth="yes"/>
      <point x="125" y="818"/>
      <point x="55" y="781"/>
      <point x="31" y="749" type="curve"/>
      <point x="90" y="681" type="line"/>
      <point x="114" y="703"/>
      <point x="156" y="727"/>
      <point x="211" y="727" type="curve" smooth="yes"/>
      <point x="261" y="727"/>
      <point x="291" y="713"/>
      <point x="291" y="681" type="curve" smooth="yes"/>
      <point x="291" y="632"/>
      <point x="224" y="613"/>
      <point x="160" y="587" type="curve" smooth="yes"/>
      <point x="59" y="545"/>
      <point x="28" y="494"/>
      <point x="28" y="383" type="curve"/>
    </contour>
  </outline>
</glyph>
<glyph name="threesuperior" format="1">
  <advance width="414"/>
  <unicode hex="00B3"/>
  <outline>
    <contour>
      <point x="193" y="376" type="curve" smooth="yes"/>
      <point x="288" y="376"/>
      <point x="382" y="413"/>
      <point x="382" y="500" type="curve" smooth="yes"/>
      <point x="382" y="555"/>
      <point x="342" y="602"/>
      <point x="276" y="611" type="curve"/>
      <point x="336" y="621"/>
      <point x="372" y="653"/>
      <point x="372" y="700" type="curve" smooth="yes"/>
      <point x="372" y="767"/>
      <point x="296" y="818"/>
      <point x="195" y="818" type="curve" smooth="yes"/>
      <point x="128" y="818"/>
      <point x="57" y="798"/>
      <point x="25" y="760" type="curve"/>
      <point x="85" y="685" type="line"/>
      <point x="111" y="713"/>
      <point x="144" y="732"/>
      <point x="196" y="732" type="curve" smooth="yes"/>
      <point x="228" y="732"/>
      <point x="273" y="722"/>
      <point x="273" y="695" type="curve" smooth="yes"/>
      <point x="273" y="661"/>
      <point x="217" y="648"/>
      <point x="139" y="648" type="curve" smooth="yes"/>
      <point x="115" y="648" type="line"/>
      <point x="115" y="563" type="line"/>
      <point x="139" y="563" type="line" smooth="yes"/>
      <point x="232" y="563"/>
      <point x="288" y="549"/>
      <point x="288" y="514" type="curve" smooth="yes"/>
      <point x="288" y="484"/>
      <point x="243" y="470"/>
      <point x="191" y="470" type="curve" smooth="yes"/>
      <point x="125" y="470"/>
      <point x="88" y="503"/>
      <point x="75" y="522" type="curve"/>
      <point x="26" y="452" type="line"/>
      <point x="48" y="402"/>
      <point x="110" y="376"/>
    </contour>
  </outline>
</glyph>
<glyph name="onequarter" format="1">
  <advance width="972"/>
  <unicode hex="00BC"/>
  <outline>
    <contour>
      <point x="876" y="1" type="line"/>
      <point x="876" y="89" type="line"/>
      <point x="938" y="89" type="line"/>
      <point x="938" y="180" type="line"/>
      <point x="876" y="180" type="line"/>
      <point x="876" y="431" type="line"/>
      <point x="812" y="431" type="line"/>
      <point x="565" y="180" type="line"/>
      <point x="565" y="89" type="line"/>
      <point x="783" y="89" type="line"/>
      <point x="783" y="1" type="line"/>
    </contour>
    <contour>
      <point x="787" y="318" type="line"/>
      <point x="787" y="180" type="line"/>
      <point x="653" y="180" type="line"/>
    </contour>
    <contour>
      <point x="265" y="-9" type="line"/>
      <point x="531" y="339" type="line"/>
      <point x="804" y="655" type="line"/>
      <point x="732" y="719" type="line"/>
      <point x="476" y="380" type="line"/>
      <point x="194" y="56" type="line"/>
    </contour>
    <contour>
      <point x="229" y="389" type="line"/>
      <point x="229" y="731" type="line"/>
      <point x="135" y="731" type="line"/>
      <point x="134" y="729"/>
      <point x="82" y="673"/>
      <point x="41" y="673" type="curve"/>
      <point x="41" y="580" type="line"/>
      <point x="72" y="580"/>
      <point x="121" y="613"/>
      <point x="135" y="632" type="curve"/>
      <point x="135" y="389" type="line"/>
      <point x="58" y="389" type="line"/>
      <point x="58" y="297" type="line"/>
      <point x="298" y="297" type="line"/>
      <point x="298" y="389" type="line"/>
    </contour>
  </outline>
</glyph>
<glyph name="onehalf" format="1">
  <advance width="992"/>
  <unicode hex="00BD"/>
  <outline>
    <contour>
      <point x="953" y="0" type="line"/>
      <point x="953" y="91" type="line"/>
      <point x="740" y="91" type="line"/>
      <point x="740" y="120"/>
      <point x="768" y="142"/>
      <point x="825" y="159" type="curve" smooth="yes"/>
      <point x="877" y="174"/>
      <point x="952" y="208"/>
      <point x="952" y="296" type="curve" smooth="yes"/>
      <point x="952" y="385"/>
      <point x="892" y="435"/>
      <point x="784" y="435" type="curve" smooth="yes"/>
      <point x="684" y="435"/>
      <point x="615" y="398"/>
      <point x="591" y="366" type="curve"/>
      <point x="649" y="297" type="line"/>
      <point x="673" y="320"/>
      <point x="714" y="344"/>
      <point x="769" y="344" type="curve" smooth="yes"/>
      <point x="818" y="344"/>
      <point x="848" y="330"/>
      <point x="848" y="297" type="curve" smooth="yes"/>
      <point x="848" y="249"/>
      <point x="782" y="230"/>
      <point x="719" y="204" type="curve" smooth="yes"/>
      <point x="618" y="161"/>
      <point x="588" y="111"/>
      <point x="588" y="0" type="curve"/>
    </contour>
    <contour>
      <point x="224" y="-9" type="line"/>
      <point x="490" y="339" type="line"/>
      <point x="763" y="655" type="line"/>
      <point x="691" y="719" type="line"/>
      <point x="435" y="380" type="line"/>
      <point x="153" y="56" type="line"/>
    </contour>
    <contour>
      <point x="227" y="389" type="line"/>
      <point x="227" y="731" type="line"/>
      <point x="133" y="731" type="line"/>
      <point x="132" y="729"/>
      <point x="80" y="673"/>
      <point x="39" y="673" type="curve"/>
      <point x="39" y="580" type="line"/>
      <point x="70" y="580"/>
      <point x="119" y="613"/>
      <point x="133" y="632" type="curve"/>
      <point x="133" y="389" type="line"/>
      <point x="56" y="389" type="line"/>
      <point x="56" y="297" type="line"/>
      <point x="296" y="297" type="line"/>
      <point x="296" y="389" type="line"/>
    </contour>
  </outline>
</glyph>
<glyph name="threequarters" format="1">
  <advance width="980"/>
  <unicode hex="00BE"/>
  <outline>
    <contour>
      <point x="205" y="289" type="curve" smooth="yes"/>
      <point x="300" y="289"/>
      <point x="394" y="326"/>
      <point x="394" y="413" type="curve" smooth="yes"/>
      <point x="394" y="468"/>
      <point x="354" y="515"/>
      <point x="288" y="524" type="curve"/>
      <point x="348" y="534"/>
      <point x="384" y="566"/>
      <point x="384" y="613" type="curve" smooth="yes"/>
      <point x="384" y="680"/>
      <point x="308" y="731"/>
      <point x="207" y="731" type="curve" smooth="yes"/>
      <point x="140" y="731"/>
      <point x="69" y="711"/>
      <point x="37" y="673" type="curve"/>
      <point x="97" y="598" type="line"/>
      <point x="123" y="626"/>
      <point x="156" y="645"/>
      <point x="208" y="645" type="curve" smooth="yes"/>
      <point x="240" y="645"/>
      <point x="285" y="635"/>
      <point x="285" y="608" type="curve" smooth="yes"/>
      <point x="285" y="574"/>
      <point x="229" y="561"/>
      <point x="151" y="561" type="curve" smooth="yes"/>
      <point x="127" y="561" type="line"/>
      <point x="127" y="476" type="line"/>
      <point x="151" y="476" type="line" smooth="yes"/>
      <point x="244" y="476"/>
      <point x="300" y="462"/>
      <point x="300" y="427" type="curve" smooth="yes"/>
      <point x="300" y="397"/>
      <point x="255" y="383"/>
      <point x="203" y="383" type="curve" smooth="yes"/>
      <point x="144" y="383"/>
      <point x="107" y="410"/>
      <point x="87" y="435" type="curve"/>
      <point x="38" y="365" type="line"/>
      <point x="60" y="315"/>
      <point x="122" y="289"/>
    </contour>
    <contour>
      <point x="883" y="1" type="line"/>
      <point x="883" y="89" type="line"/>
      <point x="945" y="89" type="line"/>
      <point x="945" y="180" type="line"/>
      <point x="883" y="180" type="line"/>
      <point x="883" y="431" type="line"/>
      <point x="819" y="431" type="line"/>
      <point x="572" y="180" type="line"/>
      <point x="572" y="89" type="line"/>
      <point x="790" y="89" type="line"/>
      <point x="790" y="1" type="line"/>
    </contour>
    <contour>
      <point x="794" y="318" type="line"/>
      <point x="794" y="180" type="line"/>
      <point x="660" y="180" type="line"/>
    </contour>
    <contour>
      <point x="295" y="-9" type="line"/>
      <point x="561" y="339" type="line"/>
      <point x="834" y="655" type="line"/>
      <point x="762" y="719" type="line"/>
      <point x="506" y="380" type="line"/>
      <point x="224" y="56" type="line"/>
    </contour>
  </outline>
</glyph>
<glyph name="questiondown" format="1">
  <advance width="483"/>
  <unicode hex="00BF"/>
  <outline>
    <contour>
      <point x="245" y="261" type="line"/>
      <point x="245" y="204"/>
      <point x="179" y="186"/>
      <point x="123" y="150" type="curve" smooth="yes"/>
      <point x="62" y="111"/>
      <point x="30" y="62"/>
      <point x="30" y="-13" type="curve" smooth="yes"/>
      <point x="30" y="-157"/>
      <point x="141" y="-213"/>
      <point x="242" y="-213" type="curve" smooth="yes"/>
      <point x="336" y="-213"/>
      <point x="417" y="-165"/>
      <point x="452" y="-84" type="curve"/>
      <point x="349" y="-12" type="line"/>
      <point x="331" y="-40"/>
      <point x="301" y="-84"/>
      <point x="248" y="-84" type="curve" smooth="yes"/>
      <point x="207" y="-84"/>
      <point x="169" y="-58"/>
      <point x="169" y="-14" type="curve" smooth="yes"/>
      <point x="169" y="51"/>
      <point x="261" y="89"/>
      <point x="296" y="109" type="curve" smooth="yes"/>
      <point x="366" y="147"/>
      <point x="377" y="200"/>
      <point x="377" y="261" type="curve"/>
    </contour>
    <contour>
      <point x="243" y="506" type="line"/>
      <point x="243" y="356" type="line"/>
      <point x="374" y="356" type="line"/>
      <point x="374" y="506" type="line"/>
    </contour>
  </outline>
</glyph>
<glyph name="Acircumflex" format="1">
  <advance width="670"/>
  <unicode hex="00C2"/>
  <outline>
    <contour>
      <point x="2" y="0" type="line"/>
      <point x="170" y="0" type="line"/>
      <point x="224" y="159" type="line"/>
      <point x="445" y="159" type="line"/>
      <point x="500" y="0" type="line"/>
      <point x="668" y="0" type="line"/>
      <point x="409" y="710" type="line"/>
      <point x="261" y="710" type="line"/>
    </contour>
    <contour>
      <point x="250" y="272" type="line"/>
      <point x="335" y="523" type="line"/>
      <point x="418" y="272" type="line"/>
    </contour>
    <contour>
      <point x="250" y="771" type="line"/>
      <point x="335" y="834" type="line"/>
      <point x="420" y="771" type="line"/>
      <point x="502" y="807" type="line"/>
      <point x="393" y="915" type="line"/>
      <point x="278" y="915" type="line"/>
      <point x="168" y="807" type="line"/>
    </contour>
  </outline>
</glyph>
<glyph name="Atilde" format="1">
  <advance width="670"/>
  <unicode hex="00C3"/>
  <outline>
    <contour>
      <point x="2" y="0" type="line"/>
      <point x="170" y="0" type="line"/>
      <point x="224" y="159" type="line"/>
      <point x="445" y="159" type="line"/>
      <point x="500" y="0" type="line"/>
      <point x="668" y="0" type="line"/>
      <point x="409" y="710" type="line"/>
      <point x="261" y="710" type="line"/>
    </contour>
    <contour>
      <point x="250" y="272" type="line"/>
      <point x="335" y="523" type="line"/>
      <point x="418" y="272" type="line"/>
    </contour>
    <contour>
      <point x="399" y="773" type="curve" smooth="yes"/>
      <point x="497" y="773"/>
      <point x="531" y="894"/>
      <point x="531" y="915" type="curve"/>
      <point x="445" y="915" type="line"/>
      <point x="445" y="912"/>
      <point x="439" y="865"/>
      <point x="393" y="865" type="curve" smooth="yes"/>
      <point x="346" y="865"/>
      <point x="323" y="913"/>
      <point x="260" y="913" type="curve" smooth="yes"/>
      <point x="166" y="913"/>
      <point x="133" y="801"/>
      <point x="133" y="771" type="curve"/>
      <point x="219" y="771" type="line"/>
      <point x="219" y="774"/>
      <point x="222" y="819"/>
      <point x="266" y="819" type="curve" smooth="yes"/>
      <point x="311" y="819"/>
      <point x="338" y="773"/>
    </contour>
  </outline>
</glyph>
<glyph name="Adieresis" format="1">
  <advance width="670"/>
  <unicode hex="00C4"/>
  <outline>
    <contour>
      <point x="2" y="0" type="line"/>
      <point x="170" y="0" type="line"/>
      <point x="224" y="159" type="line"/>
      <point x="445" y="159" type="line"/>
      <point x="500" y="0" type="line"/>
      <point x="668" y="0" type="line"/>
      <point x="409" y="710" type="line"/>
      <point x="261" y="710" type="line"/>
    </contour>
    <contour>
      <point x="250" y="272" type="line"/>
      <point x="335" y="523" type="line"/>
      <point x="418" y="272" type="line"/>
    </contour>
    <contour>
      <point x="297" y="779" type="line"/>
      <point x="297" y="908" type="line"/>
      <point x="165" y="908" type="line"/>
      <point x="165" y="779" type="line"/>
    </contour>
    <contour>
      <point x="507" y="779" type="line"/>
      <point x="507" y="908" type="line"/>
      <point x="375" y="908" type="line"/>
      <point x="375" y="779" type="line"/>
    </contour>
  </outline>
</glyph>
<glyph name="AE" format="1">
  <advance width="968"/>
  <unicode hex="00C6"/>
  <outline>
    <contour>
      <point x="597" y="709" type="move" name="top"/>
    </contour>
    <contour>
      <point x="-26" y="0" type="line"/>
      <point x="149" y="0" type="line"/>
      <point x="240" y="159" type="line"/>
      <point x="455" y="159" type="line"/>
      <point x="455" y="0" type="line"/>
      <point x="936" y="0" type="line"/>
      <point x="936" y="144" type="line"/>
      <point x="618" y="144" type="line"/>
      <point x="618" y="290" type="line"/>
      <point x="873" y="290" type="line"/>
      <point x="873" y="433" type="line"/>
      <point x="618" y="433" type="line"/>
      <point x="618" y="566" type="line"/>
      <point x="927" y="566" type="line"/>
      <point x="927" y="710" type="line"/>
      <point x="412" y="710" type="line"/>
    </contour>
    <contour>
      <point x="309" y="303" type="line"/>
      <point x="442" y="527" type="line"/>
      <point x="442" y="303" type="line"/>
    </contour>
  </outline>
</glyph>
<glyph name="Ccedilla" format="1">
  <advance width="687"/>
  <unicode hex="00C7"/>
  <outline>
    <contour>
      <point x="251" y="-183" type="line"/>
      <point x="277" y="-194"/>
      <point x="314" y="-204"/>
      <point x="360" y="-204" type="curve" smooth="yes"/>
      <point x="455" y="-204"/>
      <point x="500" y="-162"/>
      <point x="500" y="-109" type="curve" smooth="yes"/>
      <point x="500" y="-57"/>
      <point x="458" y="-35"/>
      <point x="410" y="-35" type="curve" smooth="yes"/>
      <point x="400" y="-35"/>
      <point x="389" y="-36"/>
      <point x="380" y="-38" type="curve"/>
      <point x="403" y="-5" type="line"/>
      <point x="514" y="3"/>
      <point x="634" y="62"/>
      <point x="673" y="159" type="curve"/>
      <point x="539" y="238" type="line"/>
      <point x="510" y="167"/>
      <point x="439" y="140"/>
      <point x="380" y="140" type="curve" smooth="yes"/>
      <point x="266" y="140"/>
      <point x="193" y="242"/>
      <point x="193" y="355" type="curve" smooth="yes"/>
      <point x="193" y="458"/>
      <point x="252" y="568"/>
      <point x="378" y="568" type="curve" smooth="yes"/>
      <point x="436" y="568"/>
      <point x="507" y="546"/>
      <point x="539" y="471" type="curve"/>
      <point x="665" y="559" type="line"/>
      <point x="617" y="651"/>
      <point x="515" y="714"/>
      <point x="382" y="714" type="curve" smooth="yes"/>
      <point x="158" y="714"/>
      <point x="26" y="533"/>
      <point x="26" y="361" type="curve" smooth="yes"/>
      <point x="26" y="190"/>
      <point x="152" y="16"/>
      <point x="338" y="-4" type="curve"/>
      <point x="294" y="-94" type="line"/>
      <point x="309" y="-90"/>
      <point x="345" y="-83"/>
      <point x="373" y="-83" type="curve" smooth="yes"/>
      <point x="405" y="-83"/>
      <point x="427" y="-92"/>
      <point x="427" y="-115" type="curve" smooth="yes"/>
      <point x="427" y="-139"/>
      <point x="403" y="-147"/>
      <point x="371" y="-147" type="curve" smooth="yes"/>
      <point x="335" y="-147"/>
      <point x="296" y="-136"/>
      <point x="281" y="-127" type="curve"/>
    </contour>
  </outline>
</glyph>
<glyph name="Igrave" format="1">
  <advance width="300"/>
  <unicode hex="00CC"/>
  <outline>
    <contour>
      <point x="232" y="0" type="line"/>
      <point x="232" y="710" type="line"/>
      <point x="68" y="710" type="line"/>
      <point x="68" y="0" type="line"/>
    </contour>
    <contour>
      <point x="104" y="758" type="line"/>
      <point x="205" y="786" type="line"/>
      <point x="153" y="916" type="line"/>
      <point x="8" y="916" type="line"/>
    </contour>
  </outline>
</glyph>
<glyph name="Icircumflex" format="1">
  <advance width="300"/>
  <unicode hex="00CE"/>
  <outline>
    <contour>
      <point x="232" y="0" type="line"/>
      <point x="232" y="710" type="line"/>
      <point x="68" y="710" type="line"/>
      <point x="68" y="0" type="line"/>
    </contour>
    <contour>
      <point x="65" y="771" type="line"/>
      <point x="150" y="834" type="line"/>
      <point x="235" y="771" type="line"/>
      <point x="317" y="807" type="line"/>
      <point x="208" y="915" type="line"/>
      <point x="93" y="915" type="line"/>
      <point x="-17" y="807" type="line"/>
    </contour>
  </outline>
</glyph>
<glyph name="Ntilde" format="1">
  <advance width="759"/>
  <unicode hex="00D1"/>
  <outline>
    <contour>
      <point x="559" y="0" type="line"/>
      <point x="691" y="0" type="line"/>
      <point x="691" y="710" type="line"/>
      <point x="527" y="710" type="line"/>
      <point x="527" y="293" type="line"/>
      <point x="196" y="710" type="line"/>
      <point x="68" y="710" type="line"/>
      <point x="68" y="0" type="line"/>
      <point x="232" y="0" type="line"/>
      <point x="232" y="406" type="line"/>
    </contour>
    <contour>
      <point x="441" y="772" type="curve" smooth="yes"/>
      <point x="539" y="772"/>
      <point x="573" y="893"/>
      <point x="573" y="914" type="curve"/>
      <point x="487" y="914" type="line"/>
      <point x="487" y="911"/>
      <point x="481" y="864"/>
      <point x="435" y="864" type="curve" smooth="yes"/>
      <point x="388" y="864"/>
      <point x="365" y="912"/>
      <point x="302" y="912" type="curve" smooth="yes"/>
      <point x="208" y="912"/>
      <point x="175" y="800"/>
      <point x="175" y="770" type="curve"/>
      <point x="261" y="770" type="line"/>
      <point x="261" y="773"/>
      <point x="264" y="818"/>
      <point x="308" y="818" type="curve" smooth="yes"/>
      <point x="353" y="818"/>
      <point x="380" y="772"/>
    </contour>
  </outline>
</glyph>
<glyph name="Uacute" format="1">
  <advance width="747"/>
  <unicode hex="00DA"/>
  <outline>
    <contour>
      <point x="514" y="915" type="line"/>
      <point x="369" y="915" type="line"/>
      <point x="317" y="785" type="line"/>
      <point x="419" y="757" type="line"/>
    </contour>
    <contour>
      <point x="373" y="140" type="curve" smooth="yes"/>
      <point x="262" y="140"/>
      <point x="222" y="239"/>
      <point x="222" y="347" type="curve" smooth="yes"/>
      <point x="222" y="710" type="line"/>
      <point x="58" y="710" type="line"/>
      <point x="58" y="347" type="line" smooth="yes"/>
      <point x="58" y="161"/>
      <point x="146" y="-6"/>
      <point x="373" y="-6" type="curve" smooth="yes"/>
      <point x="592" y="-6"/>
      <point x="688" y="151"/>
      <point x="688" y="347" type="curve" smooth="yes"/>
      <point x="688" y="710" type="line"/>
      <point x="524" y="710" type="line"/>
      <point x="524" y="347" type="line" smooth="yes"/>
      <point x="524" y="242"/>
      <point x="486" y="140"/>
    </contour>
  </outline>
</glyph>
<glyph name="ae" format="1">
  <advance width="939"/>
  <unicode hex="00E6"/>
  <outline>
    <contour>
      <point x="459" y="525" type="move" name="top"/>
    </contour>
    <contour>
      <point x="203" y="-10" type="curve" smooth="yes"/>
      <point x="274" y="-10"/>
      <point x="363" y="21"/>
      <point x="413" y="95" type="curve"/>
      <point x="460" y="32"/>
      <point x="539" y="-10"/>
      <point x="641" y="-10" type="curve" smooth="yes"/>
      <point x="762" y="-10"/>
      <point x="853" y="48"/>
      <point x="893" y="130" type="curve"/>
      <point x="757" y="168" type="line"/>
      <point x="742" y="130"/>
      <point x="694" y="105"/>
      <point x="646" y="105" type="curve" smooth="yes"/>
      <point x="587" y="105"/>
      <point x="532" y="143"/>
      <point x="527" y="213" type="curve"/>
      <point x="917" y="213" type="line"/>
      <point x="920" y="226"/>
      <point x="922" y="246"/>
      <point x="922" y="262" type="curve" smooth="yes"/>
      <point x="921" y="408"/>
      <point x="819" y="535"/>
      <point x="640" y="535" type="curve" smooth="yes"/>
      <point x="565" y="535"/>
      <point x="504" y="510"/>
      <point x="459" y="471" type="curve"/>
      <point x="418" y="512"/>
      <point x="356" y="535"/>
      <point x="276" y="535" type="curve" smooth="yes"/>
      <point x="192" y="535"/>
      <point x="118" y="512"/>
      <point x="49" y="467" type="curve"/>
      <point x="96" y="367" type="line"/>
      <point x="153" y="405"/>
      <point x="203" y="425"/>
      <point x="260" y="425" type="curve" smooth="yes"/>
      <point x="328" y="425"/>
      <point x="360" y="397"/>
      <point x="364" y="342" type="curve"/>
      <point x="361" y="337"/>
      <point x="360" y="318"/>
      <point x="360" y="312" type="curve"/>
      <point x="330" y="324"/>
      <point x="289" y="332"/>
      <point x="247" y="332" type="curve" smooth="yes"/>
      <point x="115" y="332"/>
      <point x="22" y="260"/>
      <point x="22" y="157" type="curve" smooth="yes"/>
      <point x="22" y="62"/>
      <point x="100" y="-10"/>
    </contour>
    <contour>
      <point x="250" y="105" type="curve" smooth="yes"/>
      <point x="206" y="105"/>
      <point x="173" y="133"/>
      <point x="173" y="171" type="curve" smooth="yes"/>
      <point x="173" y="213"/>
      <point x="216" y="243"/>
      <point x="274" y="243" type="curve" smooth="yes"/>
      <point x="300" y="243"/>
      <point x="334" y="237"/>
      <point x="360" y="228" type="curve"/>
      <point x="360" y="221"/>
      <point x="362" y="181"/>
      <point x="365" y="175" type="curve"/>
      <point x="365" y="162"/>
      <point x="356" y="149"/>
      <point x="342" y="138" type="curve" smooth="yes"/>
      <point x="320" y="118"/>
      <point x="285" y="105"/>
    </contour>
    <contour>
      <point x="524" y="310" type="line"/>
      <point x="530" y="376"/>
      <point x="575" y="420"/>
      <point x="638" y="420" type="curve" smooth="yes"/>
      <point x="701" y="420"/>
      <point x="746" y="376"/>
      <point x="753" y="310" type="curve"/>
    </contour>
  </outline>
</glyph>
<glyph name="igrave" format="1">
  <advance width="270"/>
  <unicode hex="00EC"/>
  <outline>
    <contour>
      <point x="215" y="0" type="line"/>
      <point x="215" y="525" type="line"/>
      <point x="55" y="525" type="line"/>
      <point x="55" y="0" type="line"/>
    </contour>
    <contour>
      <point x="89" y="573" type="line"/>
      <point x="190" y="601" type="line"/>
      <point x="138" y="731" type="line"/>
      <point x="-7" y="731" type="line"/>
    </contour>
  </outline>
</glyph>
<glyph name="icircumflex" format="1">
  <advance width="270"/>
  <unicode hex="00EE"/>
  <outline>
    <contour>
      <point x="50" y="586" type="line"/>
      <point x="135" y="649" type="line"/>
      <point x="220" y="586" type="line"/>
      <point x="302" y="622" type="line"/>
      <point x="193" y="730" type="line"/>
      <point x="78" y="730" type="line"/>
      <point x="-32" y="622" type="line"/>
    </contour>
    <contour>
      <point x="215" y="0" type="line"/>
      <point x="215" y="525" type="line"/>
      <point x="55" y="525" type="line"/>
      <point x="55" y="0" type="line"/>
    </contour>
  </outline>
</glyph>
<glyph name="idieresis" format="1">
  <advance width="270"/>
  <unicode hex="00EF"/>
  <outline>
    <contour>
      <point x="96" y="594" type="line"/>
      <point x="96" y="723" type="line"/>
      <point x="-36" y="723" type="line"/>
      <point x="-36" y="594" type="line"/>
    </contour>
    <contour>
      <point x="306" y="594" type="line"/>
      <point x="306" y="723" type="line"/>
      <point x="174" y="723" type="line"/>
      <point x="174" y="594" type="line"/>
    </contour>
    <contour>
      <point x="215" y="0" type="line"/>
      <point x="215" y="525" type="line"/>
      <point x="55" y="525" type="line"/>
      <point x="55" y="0" type="line"/>
    </contour>
  </outline>
</glyph>
<glyph name="ograve" format="1">
  <advance width="610"/>
  <unicode hex="00F2"/>
  <outline>
    <contour>
      <point x="305" y="-10" type="curve" smooth="yes"/>
      <point x="484" y="-10"/>
      <point x="586" y="118"/>
      <point x="586" y="262" type="curve" smooth="yes"/>
      <point x="586" y="407"/>
      <point x="483" y="535"/>
      <point x="305" y="535" type="curve" smooth="yes"/>
      <point x="126" y="535"/>
      <point x="24" y="407"/>
      <point x="24" y="262" type="curve" smooth="yes"/>
      <point x="24" y="118"/>
      <point x="126" y="-10"/>
    </contour>
    <contour>
      <point x="188" y="262" type="curve" smooth="yes"/>
      <point x="188" y="343"/>
      <point x="239" y="399"/>
      <point x="305" y="399" type="curve" smooth="yes"/>
      <point x="371" y="399"/>
      <point x="421" y="344"/>
      <point x="421" y="262" type="curve" smooth="yes"/>
      <point x="421" y="181"/>
      <point x="371" y="125"/>
      <point x="305" y="125" type="curve" smooth="yes"/>
      <point x="238" y="125"/>
      <point x="188" y="180"/>
    </contour>
    <contour>
      <point x="260" y="573" type="line"/>
      <point x="361" y="601" type="line"/>
      <point x="309" y="731" type="line"/>
      <point x="164" y="731" type="line"/>
    </contour>
  </outline>
</glyph>
<glyph name="yacute" format="1">
  <advance width="552"/>
  <unicode hex="00FD"/>
  <outline>
    <contour>
      <point x="59" y="-216" type="line"/>
      <point x="87" y="-227"/>
      <point x="114" y="-231"/>
      <point x="141" y="-231" type="curve" smooth="yes"/>
      <point x="239" y="-231"/>
      <point x="316" y="-171"/>
      <point x="344" y="-85" type="curve" smooth="yes"/>
      <point x="544" y="525" type="line"/>
      <point x="394" y="525" type="line"/>
      <point x="289" y="137" type="line"/>
      <point x="167" y="525" type="line"/>
      <point x="2" y="525" type="line"/>
      <point x="202" y="0" type="line"/>
      <point x="185" y="-69"/>
      <point x="166" y="-92"/>
      <point x="128" y="-92" type="curve" smooth="yes"/>
      <point x="110" y="-92"/>
      <point x="85" y="-88"/>
      <point x="59" y="-79" type="curve"/>
    </contour>
    <contour>
      <point x="430" y="730" type="line"/>
      <point x="285" y="730" type="line"/>
      <point x="233" y="600" type="line"/>
      <point x="335" y="572" type="line"/>
    </contour>
  </outline>
</glyph>
<glyph name="ydieresis" format="1">
  <advance width="552"/>
  <unicode hex="00FF"/>
  <outline>
    <contour>
      <point x="59" y="-216" type="line"/>
      <point x="87" y="-227"/>
      <point x="114" y="-231"/>
      <point x="141" y="-231" type="curve" smooth="yes"/>
      <point x="239" y="-231"/>
      <point x="316" y="-171"/>
      <point x="344" y="-85" type="curve" smooth="yes"/>
      <point x="544" y="525" type="line"/>
      <point x="394" y="525" type="line"/>
      <point x="289" y="137" type="line"/>
      <point x="167" y="525" type="line"/>
      <point x="2" y="525" type="line"/>
      <point x="202" y="0" type="line"/>
      <point x="185" y="-69"/>
      <point x="166" y="-92"/>
      <point x="128" y="-92" type="curve" smooth="yes"/>
      <point x="110" y="-92"/>
      <point x="85" y="-88"/>
      <point x="59" y="-79" type="curve"/>
    </contour>
    <contour>
      <point x="251" y="594" type="line"/>
      <point x="251" y="723" type="line"/>
      <point x="119" y="723" type="line"/>
      <point x="119" y="594" type="line"/>
    </contour>
    <contour>
      <point x="461" y="594" type="line"/>
      <point x="461" y="723" type="line"/>
      <point x="329" y="723" type="line"/>
      <point x="329" y="594" type="line"/>
    </contour>
  </outline>
</glyph>
<glyph name="Ccircumflex" format="1">
  <advance width="688"/>
  <unicode hex="0108"/>
  <outline>
    <contour>
      <point x="295" y="771" type="line"/>
      <point x="380" y="834" type="line"/>
      <point x="465" y="771" type="line"/>
      <point x="547" y="807" type="line"/>
      <point x="438" y="915" type="line"/>
      <point x="323" y="915" type="line"/>
      <point x="213" y="807" type="line"/>
    </contour>
    <contour>
      <point x="27" y="361" type="curve" smooth="yes"/>
      <point x="27" y="179"/>
      <point x="171" y="-6"/>
      <point x="377" y="-6" type="curve" smooth="yes"/>
      <point x="495" y="-6"/>
      <point x="632" y="54"/>
      <point x="674" y="159" type="curve"/>
      <point x="540" y="238" type="line"/>
      <point x="511" y="167"/>
      <point x="440" y="140"/>
      <point x="381" y="140" type="curve" smooth="yes"/>
      <point x="267" y="140"/>
      <point x="194" y="242"/>
      <point x="194" y="355" type="curve" smooth="yes"/>
      <point x="194" y="458"/>
      <point x="253" y="568"/>
      <point x="379" y="568" type="curve" smooth="yes"/>
      <point x="437" y="568"/>
      <point x="508" y="546"/>
      <point x="540" y="471" type="curve"/>
      <point x="666" y="559" type="line"/>
      <point x="618" y="651"/>
      <point x="516" y="714"/>
      <point x="383" y="714" type="curve" smooth="yes"/>
      <point x="159" y="714"/>
      <point x="27" y="533"/>
    </contour>
  </outline>
</glyph>
<glyph name="Edotaccent" format="1">
  <advance width="599"/>
  <unicode hex="0116"/>
  <outline>
    <contour>
      <point x="232" y="144" type="line"/>
      <point x="232" y="295" type="line"/>
      <point x="512" y="295" type="line"/>
      <point x="512" y="428" type="line"/>
      <point x="232" y="428" type="line"/>
      <point x="232" y="566" type="line"/>
      <point x="558" y="566" type="line"/>
      <point x="558" y="710" type="line"/>
      <point x="68" y="710" type="line"/>
      <point x="68" y="0" type="line"/>
      <point x="567" y="0" type="line"/>
      <point x="567" y="144" type="line"/>
    </contour>
    <contour>
      <point x="394" y="778" type="line"/>
      <point x="394" y="915" type="line"/>
      <point x="250" y="915" type="line"/>
      <point x="250" y="778" type="line"/>
    </contour>
  </outline>
</glyph>
<glyph name="Eogonek" format="1">
  <advance width="600"/>
  <unicode hex="0118"/>
  <outline>
    <contour>
      <point x="232" y="144" type="line"/>
      <point x="232" y="295" type="line"/>
      <point x="512" y="295" type="line"/>
      <point x="512" y="428" type="line"/>
      <point x="232" y="428" type="line"/>
      <point x="232" y="566" type="line"/>
      <point x="558" y="566" type="line"/>
      <point x="558" y="710" type="line"/>
      <point x="68" y="710" type="line"/>
      <point x="68" y="0" type="line"/>
      <point x="478" y="0" type="line"/>
      <point x="422" y="-34"/>
      <point x="394" y="-74"/>
      <point x="394" y="-112" type="curve" smooth="yes"/>
      <point x="394" y="-156"/>
      <point x="437" y="-194"/>
      <point x="526" y="-205" type="curve"/>
      <point x="557" y="-121" type="line"/>
      <point x="513" y="-120"/>
      <point x="492" y="-105"/>
      <point x="492" y="-82" type="curve" smooth="yes"/>
      <point x="492" y="-58"/>
      <point x="517" y="-30"/>
      <point x="567" y="0" type="curve"/>
      <point x="567" y="144" type="line"/>
    </contour>
  </outline>
</glyph>
<glyph name="Gbreve" format="1">
  <advance width="732"/>
  <unicode hex="011E"/>
  <outline>
    <contour>
      <point x="556" y="0" type="line"/>
      <point x="692" y="0" type="line"/>
      <point x="692" y="371" type="line"/>
      <point x="418" y="371" type="line"/>
      <point x="418" y="252" type="line"/>
      <point x="556" y="252" type="line"/>
      <point x="556" y="230" type="line"/>
      <point x="505" y="171"/>
      <point x="447" y="141"/>
      <point x="383" y="141" type="curve" smooth="yes"/>
      <point x="272" y="141"/>
      <point x="194" y="231"/>
      <point x="194" y="354" type="curve" smooth="yes"/>
      <point x="194" y="474"/>
      <point x="268" y="569"/>
      <point x="376" y="569" type="curve" smooth="yes"/>
      <point x="446" y="569"/>
      <point x="512" y="531"/>
      <point x="544" y="468" type="curve"/>
      <point x="666" y="560" type="line"/>
      <point x="617" y="655"/>
      <point x="513" y="715"/>
      <point x="382" y="715" type="curve" smooth="yes"/>
      <point x="181" y="715"/>
      <point x="28" y="556"/>
      <point x="28" y="360" type="curve" smooth="yes"/>
      <point x="28" y="143"/>
      <point x="183" y="-5"/>
      <point x="369" y="-5" type="curve" smooth="yes"/>
      <point x="440" y="-5"/>
      <point x="501" y="19"/>
      <point x="556" y="70" type="curve"/>
    </contour>
    <contour>
      <point x="383" y="838" type="curve" smooth="yes"/>
      <point x="351" y="838"/>
      <point x="324" y="873"/>
      <point x="324" y="915" type="curve"/>
      <point x="239" y="915" type="line"/>
      <point x="239" y="829"/>
      <point x="299" y="768"/>
      <point x="383" y="768" type="curve" smooth="yes"/>
      <point x="468" y="768"/>
      <point x="527" y="829"/>
      <point x="527" y="915" type="curve"/>
      <point x="444" y="915" type="line"/>
      <point x="440" y="870"/>
      <point x="414" y="838"/>
    </contour>
  </outline>
</glyph>
<glyph name="hcircumflex" format="1">
  <advance width="612"/>
  <unicode hex="0125"/>
  <outline>
    <contour>
      <point x="324" y="589" type="line"/>
      <point x="396" y="650" type="line"/>
      <point x="468" y="589" type="line"/>
      <point x="538" y="624" type="line"/>
      <point x="445" y="729" type="line"/>
      <point x="348" y="729" type="line"/>
      <point x="254" y="624" type="line"/>
    </contour>
    <contour>
      <point x="561" y="336" type="line"/>
      <point x="561" y="427"/>
      <point x="537" y="535"/>
      <point x="396" y="535" type="curve" smooth="yes"/>
      <point x="320" y="535"/>
      <point x="253" y="499"/>
      <point x="215" y="437" type="curve"/>
      <point x="215" y="730" type="line"/>
      <point x="55" y="730" type="line"/>
      <point x="55" y="0" type="line"/>
      <point x="215" y="0" type="line"/>
      <point x="215" y="301" type="line"/>
      <point x="234" y="357"/>
      <point x="288" y="394"/>
      <point x="326" y="394" type="curve" smooth="yes"/>
      <point x="372" y="394"/>
      <point x="401" y="363"/>
      <point x="401" y="295" type="curve" smooth="yes"/>
      <point x="401" y="0" type="line"/>
      <point x="561" y="0" type="line"/>
    </contour>
  </outline>
</glyph>
<glyph name="Itilde" format="1">
  <advance width="300"/>
  <unicode hex="0128"/>
  <outline>
    <contour>
      <point x="232" y="0" type="line"/>
      <point x="232" y="710" type="line"/>
      <point x="68" y="710" type="line"/>
      <point x="68" y="0" type="line"/>
    </contour>
    <contour>
      <point x="213" y="773" type="curve" smooth="yes"/>
      <point x="311" y="773"/>
      <point x="345" y="894"/>
      <point x="345" y="915" type="curve"/>
      <point x="259" y="915" type="line"/>
      <point x="259" y="912"/>
      <point x="253" y="865"/>
      <point x="207" y="865" type="curve" smooth="yes"/>
      <point x="160" y="865"/>
      <point x="137" y="913"/>
      <point x="74" y="913" type="curve" smooth="yes"/>
      <point x="-20" y="913"/>
      <point x="-53" y="801"/>
      <point x="-53" y="771" type="curve"/>
      <point x="33" y="771" type="line"/>
      <point x="33" y="774"/>
      <point x="36" y="819"/>
      <point x="80" y="819" type="curve" smooth="yes"/>
      <point x="125" y="819"/>
      <point x="152" y="773"/>
    </contour>
  </outline>
</glyph>
<glyph name="Imacron" format="1">
  <advance width="300"/>
  <unicode hex="012A"/>
  <outline>
    <contour>
      <point x="232" y="0" type="line"/>
      <point x="232" y="710" type="line"/>
      <point x="68" y="710" type="line"/>
      <point x="68" y="0" type="line"/>
    </contour>
    <contour>
      <point x="303" y="806" type="line"/>
      <point x="303" y="903" type="line"/>
      <point x="-1" y="903" type="line"/>
      <point x="-1" y="806" type="line"/>
    </contour>
  </outline>
</glyph>
<glyph name="iogonek" format="1">
  <advance width="270"/>
  <unicode hex="012F"/>
  <outline>
    <contour>
      <point x="174" y="-205" type="curve"/>
      <point x="205" y="-121" type="line"/>
      <point x="161" y="-120"/>
      <point x="140" y="-105"/>
      <point x="140" y="-82" type="curve" smooth="yes"/>
      <point x="140" y="-58"/>
      <point x="165" y="-30"/>
      <point x="215" y="0" type="curve"/>
      <point x="215" y="525" type="line"/>
      <point x="55" y="525" type="line"/>
      <point x="55" y="0" type="line"/>
      <point x="126" y="0" type="line"/>
      <point x="70" y="-34"/>
      <point x="42" y="-74"/>
      <point x="42" y="-112" type="curve" smooth="yes"/>
      <point x="42" y="-156"/>
      <point x="85" y="-194"/>
    </contour>
    <contour>
      <point x="215" y="585" type="line"/>
      <point x="215" y="730" type="line"/>
      <point x="55" y="730" type="line"/>
      <point x="55" y="585" type="line"/>
    </contour>
  </outline>
</glyph>
<glyph name="dotlessi" format="1">
  <advance width="270"/>
  <unicode hex="0131"/>
  <outline>
    <contour>
      <point x="135" y="525" type="move" name="top"/>
    </contour>
    <contour>
      <point x="215" y="0" type="line"/>
      <point x="215" y="525" type="line"/>
      <point x="55" y="525" type="line"/>
      <point x="55" y="0" type="line"/>
    </contour>
  </outline>
</glyph>
<glyph name="jcircumflex" format="1">
  <advance width="270"/>
  <unicode hex="0135"/>
  <outline>
    <contour>
      <point x="22" y="-202" type="curve" smooth="yes"/>
      <point x="132" y="-202"/>
      <point x="215" y="-118"/>
      <point x="215" y="3" type="curve" smooth="yes"/>
      <point x="215" y="525" type="line"/>
      <point x="55" y="525" type="line"/>
      <point x="55" y="-9" type="line" smooth="yes"/>
      <point x="55" y="-42"/>
      <point x="32" y="-64"/>
      <point x="2" y="-64" type="curve" smooth="yes"/>
      <point x="-18" y="-64"/>
      <point x="-38" y="-57"/>
      <point x="-52" y="-43" type="curve"/>
      <point x="-119" y="-152" type="line"/>
      <point x="-80" y="-185"/>
      <point x="-31" y="-202"/>
    </contour>
    <contour>
      <point x="50" y="586" type="line"/>
      <point x="135" y="649" type="line"/>
      <point x="220" y="586" type="line"/>
      <point x="302" y="622" type="line"/>
      <point x="193" y="730" type="line"/>
      <point x="78" y="730" type="line"/>
      <point x="-32" y="622" type="line"/>
    </contour>
  </outline>
</glyph>
<glyph name="Lacute" format="1">
  <advance width="585"/>
  <unicode hex="0139"/>
  <outline>
    <contour>
      <point x="505" y="915" type="line"/>
      <point x="360" y="915" type="line"/>
      <point x="308" y="785" type="line"/>
      <point x="410" y="757" type="line"/>
    </contour>
    <contour>
      <point x="576" y="0" type="line"/>
      <point x="576" y="144" type="line"/>
      <point x="232" y="144" type="line"/>
      <point x="232" y="710" type="line"/>
      <point x="68" y="710" type="line"/>
      <point x="68" y="0" type="line"/>
    </contour>
  </outline>
</glyph>
<glyph name="lacute" format="1">
  <advance width="335"/>
  <unicode hex="013A"/>
  <outline>
    <contour>
      <point x="271" y="920" type="line"/>
      <point x="126" y="920" type="line"/>
      <point x="74" y="790" type="line"/>
      <point x="176" y="762" type="line"/>
    </contour>
    <contour>
      <point x="53" y="131" type="line"/>
      <point x="53" y="41"/>
      <point x="105" y="-9"/>
      <point x="196" y="-9" type="curve" smooth="yes"/>
      <point x="241" y="-9"/>
      <point x="298" y="3"/>
      <point x="338" y="21" type="curve"/>
      <point x="317" y="141" type="line"/>
      <point x="301" y="132"/>
      <point x="280" y="127"/>
      <point x="264" y="127" type="curve" smooth="yes"/>
      <point x="231" y="127"/>
      <point x="213" y="148"/>
      <point x="213" y="187" type="curve" smooth="yes"/>
      <point x="213" y="730" type="line"/>
      <point x="53" y="730" type="line"/>
    </contour>
  </outline>
</glyph>
<glyph name="lcommaaccent" format="1">
  <advance width="335"/>
  <unicode hex="013C"/>
  <outline>
    <contour>
      <point x="212" y="-213" type="line"/>
      <point x="259" y="-146" type="line"/>
      <point x="259" y="-47" type="line"/>
      <point x="125" y="-47" type="line"/>
      <point x="125" y="-146" type="line"/>
      <point x="173" y="-146" type="line"/>
      <point x="142" y="-213" type="line"/>
    </contour>
    <contour>
      <point x="53" y="131" type="line"/>
      <point x="53" y="41"/>
      <point x="105" y="-9"/>
      <point x="196" y="-9" type="curve" smooth="yes"/>
      <point x="241" y="-9"/>
      <point x="298" y="3"/>
      <point x="338" y="21" type="curve"/>
      <point x="317" y="141" type="line"/>
      <point x="301" y="132"/>
      <point x="280" y="127"/>
      <point x="264" y="127" type="curve" smooth="yes"/>
      <point x="231" y="127"/>
      <point x="213" y="148"/>
      <point x="213" y="187" type="curve" smooth="yes"/>
      <point x="213" y="730" type="line"/>
      <point x="53" y="730" type="line"/>
    </contour>
  </outline>
</glyph>
<glyph name="ldot" format="1">
  <advance width="429"/>
  <unicode hex="0140"/>
  <outline>
    <contour>
      <point x="53" y="131" type="line"/>
      <point x="53" y="41"/>
      <point x="105" y="-9"/>
      <point x="196" y="-9" type="curve" smooth="yes"/>
      <point x="241" y="-9"/>
      <point x="298" y="3"/>
      <point x="338" y="21" type="curve"/>
      <point x="317" y="141" type="line"/>
      <point x="301" y="132"/>
      <point x="280" y="127"/>
      <point x="264" y="127" type="curve" smooth="yes"/>
      <point x="231" y="127"/>
      <point x="213" y="148"/>
      <point x="213" y="187" type="curve" smooth="yes"/>
      <point x="213" y="730" type="line"/>
      <point x="53" y="730" type="line"/>
    </contour>
    <contour>
      <point x="412" y="290" type="line"/>
      <point x="412" y="456" type="line"/>
      <point x="281" y="456" type="line"/>
      <point x="281" y="290" type="line"/>
    </contour>
  </outline>
</glyph>
<glyph name="lslash" format="1">
  <advance width="364"/>
  <unicode hex="0142"/>
  <outline>
    <contour>
      <point x="79" y="131" type="line" smooth="yes"/>
      <point x="79" y="41"/>
      <point x="131" y="-9"/>
      <point x="222" y="-9" type="curve" smooth="yes"/>
      <point x="267" y="-9"/>
      <point x="324" y="3"/>
      <point x="364" y="21" type="curve"/>
      <point x="343" y="141" type="line"/>
      <point x="327" y="132"/>
      <point x="306" y="127"/>
      <point x="290" y="127" type="curve" smooth="yes"/>
      <point x="257" y="127"/>
      <point x="239" y="148"/>
      <point x="239" y="187" type="curve" smooth="yes"/>
      <point x="239" y="373" type="line"/>
      <point x="361" y="440" type="line"/>
      <point x="323" y="526" type="line"/>
      <point x="239" y="480" type="line"/>
      <point x="239" y="730" type="line"/>
      <point x="79" y="730" type="line"/>
      <point x="79" y="393" type="line"/>
      <point x="-5" y="347" type="line"/>
      <point x="33" y="261" type="line"/>
      <point x="79" y="286" type="line"/>
    </contour>
  </outline>
</glyph>
<glyph name="ncaron" format="1">
  <advance width="612"/>
  <unicode hex="0148"/>
  <outline>
    <contour>
      <point x="157" y="693" type="line"/>
      <point x="267" y="586" type="line"/>
      <point x="382" y="586" type="line"/>
      <point x="491" y="693" type="line"/>
      <point x="409" y="730" type="line"/>
      <point x="324" y="667" type="line"/>
      <point x="239" y="730" type="line"/>
    </contour>
    <contour>
      <point x="561" y="336" type="line"/>
      <point x="561" y="424"/>
      <point x="539" y="535"/>
      <point x="403" y="535" type="curve" smooth="yes"/>
      <point x="311" y="535"/>
      <point x="237" y="499"/>
      <point x="199" y="437" type="curve"/>
      <point x="199" y="525" type="line"/>
      <point x="55" y="525" type="line"/>
      <point x="55" y="0" type="line"/>
      <point x="215" y="0" type="line"/>
      <point x="215" y="301" type="line"/>
      <point x="234" y="355"/>
      <point x="286" y="394"/>
      <point x="330" y="394" type="curve" smooth="yes"/>
      <point x="372" y="394"/>
      <point x="401" y="364"/>
      <point x="401" y="295" type="curve" smooth="yes"/>
      <point x="401" y="0" type="line"/>
      <point x="561" y="0" type="line"/>
    </contour>
  </outline>
</glyph>
<glyph name="napostrophe" format="1">
  <advance width="612"/>
  <unicode hex="0149"/>
  <outline>
    <contour>
      <point x="166" y="730" type="line"/>
      <point x="-8" y="730" type="line"/>
      <point x="1" y="680" type="line"/>
      <point x="-32" y="600" type="line"/>
      <point x="70" y="572" type="line"/>
    </contour>
    <contour>
      <point x="561" y="336" type="line"/>
      <point x="561" y="424"/>
      <point x="539" y="535"/>
      <point x="403" y="535" type="curve" smooth="yes"/>
      <point x="311" y="535"/>
      <point x="237" y="499"/>
      <point x="199" y="437" type="curve"/>
      <point x="199" y="525" type="line"/>
      <point x="55" y="525" type="line"/>
      <point x="55" y="0" type="line"/>
      <point x="215" y="0" type="line"/>
      <point x="215" y="301" type="line"/>
      <point x="234" y="355"/>
      <point x="286" y="394"/>
      <point x="330" y="394" type="curve" smooth="yes"/>
      <point x="372" y="394"/>
      <point x="401" y="364"/>
      <point x="401" y="295" type="curve" smooth="yes"/>
      <point x="401" y="0" type="line"/>
      <point x="561" y="0" type="line"/>
    </contour>
  </outline>
</glyph>
<glyph name="Eng" format="1">
  <advance width="743"/>
  <unicode hex="014A"/>
  <outline>
    <contour>
      <point x="514" y="35" type="line"/>
      <point x="514" y="-9" type="line" smooth="yes"/>
      <point x="514" y="-42"/>
      <point x="491" y="-64"/>
      <point x="461" y="-64" type="curve" smooth="yes"/>
      <point x="441" y="-64"/>
      <point x="421" y="-57"/>
      <point x="408" y="-43" type="curve"/>
      <point x="341" y="-152" type="line"/>
      <point x="379" y="-185"/>
      <point x="429" y="-202"/>
      <point x="481" y="-202" type="curve" smooth="yes"/>
      <point x="588" y="-202"/>
      <point x="674" y="-123"/>
      <point x="674" y="-2" type="curve" smooth="yes"/>
      <point x="674" y="709" type="line"/>
      <point x="510" y="709" type="line"/>
      <point x="510" y="301" type="line"/>
      <point x="194" y="710" type="line"/>
      <point x="68" y="710" type="line"/>
      <point x="68" y="0" type="line"/>
      <point x="232" y="0" type="line"/>
      <point x="232" y="401" type="line"/>
    </contour>
  </outline>
</glyph>
<glyph name="oe" format="1">
  <advance width="1002"/>
  <unicode hex="0153"/>
  <outline>
    <contour>
      <point x="303" y="-10" type="curve" smooth="yes"/>
      <point x="380" y="-10"/>
      <point x="437" y="20"/>
      <point x="503" y="90" type="curve"/>
      <point x="570" y="22"/>
      <point x="630" y="-10"/>
      <point x="708" y="-10" type="curve" smooth="yes"/>
      <point x="818" y="-10"/>
      <point x="914" y="44"/>
      <point x="957" y="130" type="curve"/>
      <point x="826" y="168" type="line"/>
      <point x="811" y="130"/>
      <point x="763" y="102"/>
      <point x="713" y="102" type="curve" smooth="yes"/>
      <point x="648" y="102"/>
      <point x="597" y="150"/>
      <point x="592" y="213" type="curve"/>
      <point x="980" y="213" type="line"/>
      <point x="982" y="226"/>
      <point x="984" y="246"/>
      <point x="984" y="262" type="curve" smooth="yes"/>
      <point x="981" y="422"/>
      <point x="867" y="535"/>
      <point x="706" y="535" type="curve" smooth="yes"/>
      <point x="622" y="535"/>
      <point x="559" y="501"/>
      <point x="503" y="429" type="curve"/>
      <point x="453" y="498"/>
      <point x="387" y="535"/>
      <point x="302" y="535" type="curve" smooth="yes"/>
      <point x="141" y="535"/>
      <point x="24" y="420"/>
      <point x="24" y="262" type="curve" smooth="yes"/>
      <point x="24" y="104"/>
      <point x="141" y="-10"/>
    </contour>
    <contour>
      <point x="305" y="125" type="curve" smooth="yes"/>
      <point x="237" y="125"/>
      <point x="188" y="181"/>
      <point x="188" y="262" type="curve" smooth="yes"/>
      <point x="188" y="342"/>
      <point x="237" y="399"/>
      <point x="305" y="399" type="curve" smooth="yes"/>
      <point x="373" y="399"/>
      <point x="421" y="342"/>
      <point x="421" y="262" type="curve" smooth="yes"/>
      <point x="421" y="182"/>
      <point x="373" y="125"/>
    </contour>
    <contour>
      <point x="587" y="310" type="line"/>
      <point x="593" y="375"/>
      <point x="638" y="420"/>
      <point x="701" y="420" type="curve" smooth="yes"/>
      <point x="763" y="420"/>
      <point x="811" y="376"/>
      <point x="818" y="310" type="curve"/>
    </contour>
  </outline>
</glyph>
<glyph name="racute" format="1">
  <advance width="400"/>
  <unicode hex="0155"/>
  <outline>
    <contour>
      <point x="386" y="730" type="line"/>
      <point x="241" y="730" type="line"/>
      <point x="189" y="600" type="line"/>
      <point x="291" y="572" type="line"/>
    </contour>
    <contour>
      <point x="388" y="532" type="line"/>
      <point x="382" y="533"/>
      <point x="376" y="533"/>
      <point x="362" y="533" type="curve" smooth="yes"/>
      <point x="299" y="532"/>
      <point x="238" y="489"/>
      <point x="202" y="419" type="curve"/>
      <point x="202" y="525" type="line"/>
      <point x="55" y="525" type="line"/>
      <point x="55" y="0" type="line"/>
      <point x="215" y="0" type="line"/>
      <point x="215" y="315" type="line"/>
      <point x="243" y="363"/>
      <point x="311" y="387"/>
      <point x="388" y="388" type="curve"/>
    </contour>
  </outline>
</glyph>
<glyph name="rcommaaccent" format="1">
  <advance width="400"/>
  <unicode hex="0157"/>
  <outline>
    <contour>
      <point x="145" y="-213" type="line"/>
      <point x="192" y="-146" type="line"/>
      <point x="192" y="-47" type="line"/>
      <point x="58" y="-47" type="line"/>
      <point x="58" y="-146" type="line"/>
      <point x="106" y="-146" type="line"/>
      <point x="75" y="-213" type="line"/>
    </contour>
    <contour>
      <point x="388" y="532" type="line"/>
      <point x="382" y="533"/>
      <point x="376" y="533"/>
      <point x="362" y="533" type="curve" smooth="yes"/>
      <point x="299" y="532"/>
      <point x="238" y="489"/>
      <point x="202" y="419" type="curve"/>
      <point x="202" y="525" type="line"/>
      <point x="55" y="525" type="line"/>
      <point x="55" y="0" type="line"/>
      <point x="215" y="0" type="line"/>
      <point x="215" y="315" type="line"/>
      <point x="243" y="363"/>
      <point x="311" y="387"/>
      <point x="388" y="388" type="curve"/>
    </contour>
  </outline>
</glyph>
<glyph name="uni0162" format="1">
  <advance width="621"/>
  <unicode hex="0162"/>
  <outline>
    <contour>
      <point x="190" y="-183" type="line"/>
      <point x="216" y="-194"/>
      <point x="253" y="-204"/>
      <point x="299" y="-204" type="curve" smooth="yes"/>
      <point x="394" y="-204"/>
      <point x="439" y="-162"/>
      <point x="439" y="-109" type="curve" smooth="yes"/>
      <point x="439" y="-57"/>
      <point x="397" y="-35"/>
      <point x="349" y="-35" type="curve" smooth="yes"/>
      <point x="339" y="-35"/>
      <point x="328" y="-36"/>
      <point x="319" y="-38" type="curve"/>
      <point x="345" y="0" type="line"/>
      <point x="393" y="0" type="line"/>
      <point x="393" y="566" type="line"/>
      <point x="609" y="566" type="line"/>
      <point x="609" y="710" type="line"/>
      <point x="12" y="710" type="line"/>
      <point x="12" y="566" type="line"/>
      <point x="229" y="566" type="line"/>
      <point x="229" y="0" type="line"/>
      <point x="279" y="0" type="line"/>
      <point x="233" y="-94" type="line"/>
      <point x="248" y="-90"/>
      <point x="284" y="-83"/>
      <point x="312" y="-83" type="curve" smooth="yes"/>
      <point x="344" y="-83"/>
      <point x="366" y="-92"/>
      <point x="366" y="-115" type="curve" smooth="yes"/>
      <point x="366" y="-139"/>
      <point x="342" y="-147"/>
      <point x="310" y="-147" type="curve" smooth="yes"/>
      <point x="274" y="-147"/>
      <point x="235" y="-136"/>
      <point x="220" y="-127" type="curve"/>
    </contour>
  </outline>
</glyph>
<glyph name="uni0163" format="1">
  <advance width="402"/>
  <unicode hex="0163"/>
  <outline>
    <contour>
      <point x="123" y="-183" type="line"/>
      <point x="149" y="-194"/>
      <point x="186" y="-204"/>
      <point x="232" y="-204" type="curve" smooth="yes"/>
      <point x="327" y="-204"/>
      <point x="372" y="-162"/>
      <point x="372" y="-109" type="curve" smooth="yes"/>
      <point x="372" y="-57"/>
      <point x="330" y="-35"/>
      <point x="282" y="-35" type="curve" smooth="yes"/>
      <point x="272" y="-35"/>
      <point x="261" y="-36"/>
      <point x="252" y="-38" type="curve"/>
      <point x="273" y="-7" type="line"/>
      <point x="317" y="-1"/>
      <point x="361" y="13"/>
      <point x="395" y="28" type="curve"/>
      <point x="364" y="155" type="line"/>
      <point x="345" y="146"/>
      <point x="318" y="136"/>
      <point x="294" y="136" type="curve" smooth="yes"/>
      <point x="267" y="136"/>
      <point x="248" y="150"/>
      <point x="248" y="185" type="curve" smooth="yes"/>
      <point x="248" y="404" type="line"/>
      <point x="355" y="404" type="line"/>
      <point x="355" y="525" type="line"/>
      <point x="248" y="525" type="line"/>
      <point x="248" y="692" type="line"/>
      <point x="88" y="692" type="line"/>
      <point x="88" y="525" type="line"/>
      <point x="21" y="525" type="line"/>
      <point x="21" y="404" type="line"/>
      <point x="88" y="404" type="line"/>
      <point x="88" y="130" type="line" smooth="yes"/>
      <point x="88" y="39"/>
      <point x="140" y="0"/>
      <point x="208" y="-8" type="curve"/>
      <point x="166" y="-94" type="line"/>
      <point x="181" y="-90"/>
      <point x="217" y="-83"/>
      <point x="245" y="-83" type="curve" smooth="yes"/>
      <point x="277" y="-83"/>
      <point x="299" y="-92"/>
      <point x="299" y="-115" type="curve" smooth="yes"/>
      <point x="299" y="-139"/>
      <point x="275" y="-147"/>
      <point x="243" y="-147" type="curve" smooth="yes"/>
      <point x="207" y="-147"/>
      <point x="168" y="-136"/>
      <point x="153" y="-127" type="curve"/>
    </contour>
  </outline>
</glyph>
<glyph name="tbar" format="1">
  <advance width="403"/>
  <unicode hex="0167"/>
  <outline>
    <contour>
      <point x="365" y="155" type="line"/>
      <point x="346" y="146"/>
      <point x="319" y="136"/>
      <point x="295" y="136" type="curve" smooth="yes"/>
      <point x="268" y="136"/>
      <point x="249" y="150"/>
      <point x="249" y="185" type="curve" smooth="yes"/>
      <point x="249" y="247" type="line"/>
      <point x="356" y="247" type="line"/>
      <point x="356" y="340" type="line"/>
      <point x="249" y="340" type="line"/>
      <point x="249" y="404" type="line"/>
      <point x="356" y="404" type="line"/>
      <point x="356" y="525" type="line"/>
      <point x="249" y="525" type="line"/>
      <point x="249" y="692" type="line"/>
      <point x="89" y="692" type="line"/>
      <point x="89" y="525" type="line"/>
      <point x="22" y="525" type="line"/>
      <point x="22" y="404" type="line"/>
      <point x="89" y="404" type="line"/>
      <point x="89" y="340" type="line"/>
      <point x="22" y="340" type="line"/>
      <point x="22" y="247" type="line"/>
      <point x="89" y="247" type="line"/>
      <point x="89" y="130" type="line" smooth="yes"/>
      <point x="89" y="28"/>
      <point x="155" y="-10"/>
      <point x="235" y="-10" type="curve" smooth="yes"/>
      <point x="292" y="-10"/>
      <point x="352" y="9"/>
      <point x="396" y="28" type="curve"/>
    </contour>
  </outline>
</glyph>
<glyph name="Uhungarumlaut" format="1">
  <advance width="747"/>
  <unicode hex="0170"/>
  <outline>
    <contour>
      <point x="373" y="140" type="curve" smooth="yes"/>
      <point x="262" y="140"/>
      <point x="222" y="239"/>
      <point x="222" y="347" type="curve" smooth="yes"/>
      <point x="222" y="710" type="line"/>
      <point x="58" y="710" type="line"/>
      <point x="58" y="347" type="line" smooth="yes"/>
      <point x="58" y="161"/>
      <point x="146" y="-6"/>
      <point x="373" y="-6" type="curve" smooth="yes"/>
      <point x="592" y="-6"/>
      <point x="688" y="151"/>
      <point x="688" y="347" type="curve" smooth="yes"/>
      <point x="688" y="710" type="line"/>
      <point x="524" y="710" type="line"/>
      <point x="524" y="347" type="line" smooth="yes"/>
      <point x="524" y="242"/>
      <point x="486" y="140"/>
    </contour>
    <contour>
      <point x="397" y="916" type="line"/>
      <point x="277" y="916" type="line"/>
      <point x="232" y="786" type="line"/>
      <point x="309" y="758" type="line"/>
    </contour>
    <contour>
      <point x="571" y="916" type="line"/>
      <point x="451" y="916" type="line"/>
      <point x="407" y="786" type="line"/>
      <point x="484" y="758" type="line"/>
    </contour>
  </outline>
</glyph>
<glyph name="uogonek" format="1">
  <advance width="628"/>
  <unicode hex="0173"/>
  <outline>
    <contour>
      <point x="215" y="-10" type="curve" smooth="yes"/>
      <point x="303" y="-10"/>
      <point x="376" y="22"/>
      <point x="424" y="91" type="curve"/>
      <point x="427" y="59" type="line"/>
      <point x="433" y="24"/>
      <point x="457" y="1"/>
      <point x="495" y="-5" type="curve"/>
      <point x="445" y="-38"/>
      <point x="420" y="-76"/>
      <point x="420" y="-112" type="curve" smooth="yes"/>
      <point x="420" y="-156"/>
      <point x="463" y="-194"/>
      <point x="552" y="-205" type="curve"/>
      <point x="583" y="-121" type="line"/>
      <point x="539" y="-120"/>
      <point x="518" y="-105"/>
      <point x="518" y="-82" type="curve" smooth="yes"/>
      <point x="518" y="-58"/>
      <point x="543" y="-30"/>
      <point x="593" y="0" type="curve"/>
      <point x="593" y="135" type="line"/>
      <point x="568" y="137"/>
      <point x="559" y="148"/>
      <point x="559" y="180" type="curve" smooth="yes"/>
      <point x="559" y="525" type="line"/>
      <point x="399" y="525" type="line"/>
      <point x="399" y="201" type="line"/>
      <point x="368" y="146"/>
      <point x="326" y="125"/>
      <point x="284" y="125" type="curve" smooth="yes"/>
      <point x="237" y="125"/>
      <point x="211" y="160"/>
      <point x="211" y="224" type="curve" smooth="yes"/>
      <point x="211" y="525" type="line"/>
      <point x="51" y="525" type="line"/>
      <point x="51" y="189" type="line" smooth="yes"/>
      <point x="51" y="59"/>
      <point x="108" y="-10"/>
    </contour>
  </outline>
</glyph>
<glyph name="Zacute" format="1">
  <advance width="625"/>
  <unicode hex="0179"/>
  <outline>
    <contour>
      <point x="464" y="915" type="line"/>
      <point x="319" y="915" type="line"/>
      <point x="267" y="785" type="line"/>
      <point x="369" y="757" type="line"/>
    </contour>
    <contour>
      <point x="28" y="0" type="line"/>
      <point x="591" y="0" type="line"/>
      <point x="591" y="144" type="line"/>
      <point x="235" y="144" type="line"/>
      <point x="587" y="587" type="line"/>
      <point x="587" y="710" type="line"/>
      <point x="42" y="710" type="line"/>
      <point x="42" y="566" type="line"/>
      <point x="398" y="566" type="line"/>
      <point x="28" y="123" type="line"/>
    </contour>
  </outline>
</glyph>
<glyph name="uni01C4" format="1">
  <advance width="1341"/>
  <unicode hex="01C4"/>
  <outline>
    <contour>
      <point x="872" y="878" type="line"/>
      <point x="982" y="771" type="line"/>
      <point x="1097" y="771" type="line"/>
      <point x="1206" y="878" type="line"/>
      <point x="1124" y="915" type="line"/>
      <point x="1039" y="852" type="line"/>
      <point x="954" y="915" type="line"/>
    </contour>
    <contour>
      <point x="744" y="0" type="line"/>
      <point x="1307" y="0" type="line"/>
      <point x="1307" y="144" type="line"/>
      <point x="951" y="144" type="line"/>
      <point x="1303" y="587" type="line"/>
      <point x="1303" y="710" type="line"/>
      <point x="758" y="710" type="line"/>
      <point x="758" y="566" type="line"/>
      <point x="1114" y="566" type="line"/>
      <point x="744" y="123" type="line"/>
    </contour>
    <contour>
      <point x="333" y="0" type="line"/>
      <point x="547" y="0"/>
      <point x="687" y="141"/>
      <point x="687" y="356" type="curve" smooth="yes"/>
      <point x="687" y="552"/>
      <point x="567" y="710"/>
      <point x="333" y="710" type="curve" smooth="yes"/>
      <point x="68" y="710" type="line"/>
      <point x="68" y="0" type="line"/>
    </contour>
    <contour>
      <point x="520" y="356" type="curve" smooth="yes"/>
      <point x="520" y="234"/>
      <point x="453" y="144"/>
      <point x="333" y="144" type="curve" smooth="yes"/>
      <point x="232" y="144" type="line"/>
      <point x="232" y="566" type="line"/>
      <point x="333" y="566" type="line" smooth="yes"/>
      <point x="451" y="566"/>
      <point x="520" y="481"/>
    </contour>
  </outline>
</glyph>
<glyph name="uni01C8" format="1">
  <advance width="859"/>
  <unicode hex="01C8"/>
  <outline>
    <contour>
      <point x="612" y="-202" type="curve" smooth="yes"/>
      <point x="722" y="-202"/>
      <point x="805" y="-118"/>
      <point x="805" y="3" type="curve" smooth="yes"/>
      <point x="805" y="525" type="line"/>
      <point x="645" y="525" type="line"/>
      <point x="645" y="-9" type="line" smooth="yes"/>
      <point x="645" y="-42"/>
      <point x="622" y="-64"/>
      <point x="592" y="-64" type="curve" smooth="yes"/>
      <point x="572" y="-64"/>
      <point x="552" y="-57"/>
      <point x="538" y="-43" type="curve"/>
      <point x="471" y="-152" type="line"/>
      <point x="509" y="-185"/>
      <point x="559" y="-202"/>
    </contour>
    <contour>
      <point x="805" y="585" type="line"/>
      <point x="805" y="730" type="line"/>
      <point x="645" y="730" type="line"/>
      <point x="645" y="585" type="line"/>
    </contour>
    <contour>
      <point x="576" y="0" type="line"/>
      <point x="576" y="144" type="line"/>
      <point x="232" y="144" type="line"/>
      <point x="232" y="710" type="line"/>
      <point x="68" y="710" type="line"/>
      <point x="68" y="0" type="line"/>
    </contour>
  </outline>
</glyph>
<glyph name="Oogonek" format="1">
  <advance width="760"/>
  <unicode hex="01EA"/>
  <outline>
    <contour>
      <point x="376" y="-205" type="curve"/>
      <point x="407" y="-121" type="line"/>
      <point x="363" y="-120"/>
      <point x="342" y="-105"/>
      <point x="342" y="-82" type="curve" smooth="yes"/>
      <point x="342" y="-59"/>
      <point x="364" y="-32"/>
      <point x="409" y="-4" type="curve"/>
      <point x="599" y="11"/>
      <point x="733" y="175"/>
      <point x="733" y="353" type="curve" smooth="yes"/>
      <point x="733" y="533"/>
      <point x="593" y="714"/>
      <point x="382" y="714" type="curve" smooth="yes"/>
      <point x="177" y="714"/>
      <point x="27" y="544"/>
      <point x="27" y="356" type="curve" smooth="yes"/>
      <point x="27" y="189"/>
      <point x="144" y="25"/>
      <point x="325" y="-2" type="curve"/>
      <point x="271" y="-36"/>
      <point x="244" y="-75"/>
      <point x="244" y="-112" type="curve" smooth="yes"/>
      <point x="244" y="-156"/>
      <point x="287" y="-194"/>
    </contour>
    <contour>
      <point x="194" y="354" type="curve" smooth="yes"/>
      <point x="194" y="461"/>
      <point x="256" y="568"/>
      <point x="380" y="568" type="curve" smooth="yes"/>
      <point x="500" y="568"/>
      <point x="566" y="466"/>
      <point x="566" y="356" type="curve" smooth="yes"/>
      <point x="566" y="250"/>
      <point x="505" y="140"/>
      <point x="380" y="140" type="curve" smooth="yes"/>
      <point x="259" y="140"/>
      <point x="194" y="245"/>
    </contour>
  </outline>
</glyph>
<glyph name="gacute" format="1">
  <advance width="640"/>
  <unicode hex="01F5"/>
  <outline>
    <contour>
      <point x="458" y="730" type="line"/>
      <point x="313" y="730" type="line"/>
      <point x="261" y="600" type="line"/>
      <point x="363" y="572" type="line"/>
    </contour>
    <contour>
      <point x="259" y="-2" type="curve" smooth="yes"/>
      <point x="328" y="-2"/>
      <point x="393" y="29"/>
      <point x="425" y="87" type="curve"/>
      <point x="425" y="36" type="line" smooth="yes"/>
      <point x="425" y="-63"/>
      <point x="358" y="-103"/>
      <point x="281" y="-103" type="curve" smooth="yes"/>
      <point x="216" y="-103"/>
      <point x="155" y="-75"/>
      <point x="117" y="-31" type="curve"/>
      <point x="31" y="-118" type="line"/>
      <point x="91" y="-185"/>
      <point x="168" y="-223"/>
      <point x="281" y="-223" type="curve" smooth="yes"/>
      <point x="460" y="-223"/>
      <point x="585" y="-124"/>
      <point x="585" y="36" type="curve" smooth="yes"/>
      <point x="585" y="525" type="line"/>
      <point x="446" y="525" type="line"/>
      <point x="446" y="439" type="line"/>
      <point x="410" y="499"/>
      <point x="349" y="535"/>
      <point x="270" y="535" type="curve" smooth="yes"/>
      <point x="126" y="535"/>
      <point x="26" y="417"/>
      <point x="26" y="263" type="curve" smooth="yes"/>
      <point x="26" y="117"/>
      <point x="120" y="-2"/>
    </contour>
    <contour>
      <point x="314" y="125" type="curve" smooth="yes"/>
      <point x="243" y="125"/>
      <point x="189" y="182"/>
      <point x="189" y="259" type="curve" smooth="yes"/>
      <point x="189" y="332"/>
      <point x="237" y="399"/>
      <point x="306" y="399" type="curve" smooth="yes"/>
      <point x="355" y="399"/>
      <point x="404" y="363"/>
      <point x="425" y="308" type="curve"/>
      <point x="425" y="198" type="line"/>
      <point x="404" y="155"/>
      <point x="363" y="125"/>
    </contour>
  </outline>
</glyph>
<glyph name="Aringacute" format="1">
  <advance width="670"/>
  <unicode hex="01FA"/>
  <outline>
    <contour>
      <point x="489" y="918" type="line"/>
      <point x="344" y="918" type="line"/>
      <point x="301" y="823" type="line"/>
      <point x="256" y="814"/>
      <point x="228" y="788"/>
      <point x="228" y="744" type="curve" smooth="yes"/>
      <point x="228" y="720"/>
      <point x="236" y="700"/>
      <point x="252" y="687" type="curve"/>
      <point x="2" y="0" type="line"/>
      <point x="170" y="0" type="line"/>
      <point x="224" y="159" type="line"/>
      <point x="445" y="159" type="line"/>
      <point x="500" y="0" type="line"/>
      <point x="668" y="0" type="line"/>
      <point x="417" y="687" type="line"/>
      <point x="432" y="701"/>
      <point x="441" y="720"/>
      <point x="441" y="744" type="curve" smooth="yes"/>
      <point x="441" y="770"/>
      <point x="431" y="791"/>
      <point x="413" y="804" type="curve"/>
    </contour>
    <contour>
      <point x="250" y="272" type="line"/>
      <point x="335" y="523" type="line"/>
      <point x="418" y="272" type="line"/>
    </contour>
    <contour>
      <point x="335" y="779" type="curve" smooth="yes"/>
      <point x="358" y="779"/>
      <point x="375" y="765"/>
      <point x="375" y="745" type="curve" smooth="yes"/>
      <point x="375" y="724"/>
      <point x="356" y="710"/>
      <point x="335" y="710" type="curve" smooth="yes"/>
      <point x="312" y="710"/>
      <point x="295" y="725"/>
      <point x="295" y="745" type="curve" smooth="yes"/>
      <point x="295" y="765"/>
      <point x="312" y="779"/>
    </contour>
  </outline>
</glyph>
<glyph name="oslashacute" format="1">
  <advance width="610"/>
  <unicode hex="01FF"/>
  <outline>
    <contour>
      <point x="120" y="-5" type="line"/>
      <point x="150" y="30" type="line"/>
      <point x="192" y="4"/>
      <point x="244" y="-10"/>
      <point x="305" y="-10" type="curve" smooth="yes"/>
      <point x="484" y="-10"/>
      <point x="586" y="118"/>
      <point x="586" y="262" type="curve" smooth="yes"/>
      <point x="586" y="337"/>
      <point x="558" y="408"/>
      <point x="507" y="458" type="curve"/>
      <point x="569" y="530" type="line"/>
      <point x="481" y="530" type="line"/>
      <point x="454" y="498" type="line"/>
      <point x="413" y="521"/>
      <point x="363" y="535"/>
      <point x="305" y="535" type="curve" smooth="yes"/>
      <point x="126" y="535"/>
      <point x="24" y="407"/>
      <point x="24" y="262" type="curve" smooth="yes"/>
      <point x="24" y="189"/>
      <point x="50" y="120"/>
      <point x="98" y="70" type="curve"/>
      <point x="33" y="-5" type="line"/>
    </contour>
    <contour>
      <point x="305" y="125" type="curve" smooth="yes"/>
      <point x="282" y="125"/>
      <point x="260" y="131"/>
      <point x="243" y="143" type="curve"/>
      <point x="402" y="339" type="line"/>
      <point x="414" y="318"/>
      <point x="421" y="292"/>
      <point x="421" y="262" type="curve" smooth="yes"/>
      <point x="421" y="181"/>
      <point x="371" y="125"/>
    </contour>
    <contour>
      <point x="188" y="262" type="curve" smooth="yes"/>
      <point x="188" y="343"/>
      <point x="239" y="399"/>
      <point x="305" y="399" type="curve" smooth="yes"/>
      <point x="326" y="399"/>
      <point x="345" y="393"/>
      <point x="362" y="383" type="curve"/>
      <point x="204" y="188" type="line"/>
      <point x="193" y="209"/>
      <point x="188" y="234"/>
    </contour>
    <contour>
      <point x="445" y="730" type="line"/>
      <point x="300" y="730" type="line"/>
      <point x="248" y="600" type="line"/>
      <point x="350" y="572" type="line"/>
    </contour>
  </outline>
</glyph>
<glyph name="Einvertedbreve" format="1">
  <advance width="599"/>
  <unicode hex="0206"/>
  <outline>
    <contour>
      <point x="318" y="845" type="curve" smooth="yes"/>
      <point x="349" y="845"/>
      <point x="375" y="813"/>
      <point x="379" y="768" type="curve"/>
      <point x="462" y="768" type="line"/>
      <point x="462" y="854"/>
      <point x="403" y="915"/>
      <point x="318" y="915" type="curve" smooth="yes"/>
      <point x="234" y="915"/>
      <point x="174" y="854"/>
      <point x="174" y="768" type="curve"/>
      <point x="259" y="768" type="line"/>
      <point x="259" y="810"/>
      <point x="286" y="845"/>
    </contour>
    <contour>
      <point x="232" y="144" type="line"/>
      <point x="232" y="295" type="line"/>
      <point x="512" y="295" type="line"/>
      <point x="512" y="428" type="line"/>
      <point x="232" y="428" type="line"/>
      <point x="232" y="566" type="line"/>
      <point x="558" y="566" type="line"/>
      <point x="558" y="710" type="line"/>
      <point x="68" y="710" type="line"/>
      <point x="68" y="0" type="line"/>
      <point x="567" y="0" type="line"/>
      <point x="567" y="144" type="line"/>
    </contour>
  </outline>
</glyph>
<glyph name="Idblgrave" format="1">
  <advance width="300"/>
  <unicode hex="0208"/>
  <outline>
    <contour>
      <point x="232" y="0" type="line"/>
      <point x="232" y="710" type="line"/>
      <point x="68" y="710" type="line"/>
      <point x="68" y="0" type="line"/>
    </contour>
    <contour>
      <point x="225" y="758" type="line"/>
      <point x="302" y="786" type="line"/>
      <point x="258" y="916" type="line"/>
      <point x="137" y="916" type="line"/>
    </contour>
    <contour>
      <point x="50" y="758" type="line"/>
      <point x="128" y="786" type="line"/>
      <point x="83" y="916" type="line"/>
      <point x="-37" y="916" type="line"/>
    </contour>
  </outline>
</glyph>
<glyph name="Iinvertedbreve" format="1">
  <advance width="300"/>
  <unicode hex="020A"/>
  <outline>
    <contour>
      <point x="232" y="0" type="line"/>
      <point x="232" y="710" type="line"/>
      <point x="68" y="710" type="line"/>
      <point x="68" y="0" type="line"/>
    </contour>
    <contour>
      <point x="149" y="845" type="curve" smooth="yes"/>
      <point x="180" y="845"/>
      <point x="206" y="813"/>
      <point x="210" y="768" type="curve"/>
      <point x="293" y="768" type="line"/>
      <point x="293" y="854"/>
      <point x="234" y="915"/>
      <point x="149" y="915" type="curve" smooth="yes"/>
      <point x="65" y="915"/>
      <point x="5" y="854"/>
      <point x="5" y="768" type="curve"/>
      <point x="90" y="768" type="line"/>
      <point x="90" y="810"/>
      <point x="117" y="845"/>
    </contour>
  </outline>
</glyph>
<glyph name="rdblgrave" format="1">
  <advance width="400"/>
  <unicode hex="0211"/>
  <outline>
    <contour>
      <point x="296" y="572" type="line"/>
      <point x="373" y="600" type="line"/>
      <point x="329" y="730" type="line"/>
      <point x="208" y="730" type="line"/>
    </contour>
    <contour>
      <point x="121" y="572" type="line"/>
      <point x="199" y="600" type="line"/>
      <point x="154" y="730" type="line"/>
      <point x="34" y="730" type="line"/>
    </contour>
    <contour>
      <point x="388" y="532" type="line"/>
      <point x="382" y="533"/>
      <point x="376" y="533"/>
      <point x="362" y="533" type="curve" smooth="yes"/>
      <point x="299" y="532"/>
      <point x="238" y="489"/>
      <point x="202" y="419" type="curve"/>
      <point x="202" y="525" type="line"/>
      <point x="55" y="525" type="line"/>
      <point x="55" y="0" type="line"/>
      <point x="215" y="0" type="line"/>
      <point x="215" y="315" type="line"/>
      <point x="243" y="363"/>
      <point x="311" y="387"/>
      <point x="388" y="388" type="curve"/>
    </contour>
  </outline>
</glyph>
<glyph name="Udblgrave" format="1">
  <advance width="747"/>
  <unicode hex="0214"/>
  <outline>
    <contour>
      <point x="442" y="758" type="line"/>
      <point x="519" y="786" type="line"/>
      <point x="475" y="916" type="line"/>
      <point x="354" y="916" type="line"/>
    </contour>
    <contour>
      <point x="267" y="758" type="line"/>
      <point x="345" y="786" type="line"/>
      <point x="300" y="916" type="line"/>
      <point x="180" y="916" type="line"/>
    </contour>
    <contour>
      <point x="373" y="140" type="curve" smooth="yes"/>
      <point x="262" y="140"/>
      <point x="222" y="239"/>
      <point x="222" y="347" type="curve" smooth="yes"/>
      <point x="222" y="710" type="line"/>
      <point x="58" y="710" type="line"/>
      <point x="58" y="347" type="line" smooth="yes"/>
      <point x="58" y="161"/>
      <point x="146" y="-6"/>
      <point x="373" y="-6" type="curve" smooth="yes"/>
      <point x="592" y="-6"/>
      <point x="688" y="151"/>
      <point x="688" y="347" type="curve" smooth="yes"/>
      <point x="688" y="710" type="line"/>
      <point x="524" y="710" type="line"/>
      <point x="524" y="347" type="line" smooth="yes"/>
      <point x="524" y="242"/>
      <point x="486" y="140"/>
    </contour>
  </outline>
</glyph>
<glyph name="uni0218" format="1">
  <advance width="615"/>
  <unicode hex="0218"/>
  <outline>
    <contour>
      <point x="341" y="-213" type="line"/>
      <point x="388" y="-146" type="line"/>
      <point x="388" y="-47" type="line"/>
      <point x="254" y="-47" type="line"/>
      <point x="254" y="-146" type="line"/>
      <point x="302" y="-146" type="line"/>
      <point x="271" y="-213" type="line"/>
    </contour>
    <contour>
      <point x="566" y="638" type="line"/>
      <point x="503" y="675"/>
      <point x="410" y="716"/>
      <point x="310" y="716" type="curve" smooth="yes"/>
      <point x="168" y="716"/>
      <point x="48" y="635"/>
      <point x="48" y="485" type="curve" smooth="yes"/>
      <point x="48" y="378"/>
      <point x="108" y="329"/>
      <point x="239" y="289" type="curve" smooth="yes"/>
      <point x="338" y="259"/>
      <point x="411" y="246"/>
      <point x="411" y="193" type="curve" smooth="yes"/>
      <point x="411" y="159"/>
      <point x="383" y="140"/>
      <point x="324" y="140" type="curve" smooth="yes"/>
      <point x="215" y="140"/>
      <point x="102" y="209"/>
      <point x="90" y="223" type="curve"/>
      <point x="18" y="80" type="line"/>
      <point x="101" y="25"/>
      <point x="216" y="-8"/>
      <point x="321" y="-8" type="curve" smooth="yes"/>
      <point x="457" y="-8"/>
      <point x="587" y="48"/>
      <point x="587" y="209" type="curve" smooth="yes"/>
      <point x="587" y="341"/>
      <point x="502" y="388"/>
      <point x="366" y="424" type="curve" smooth="yes"/>
      <point x="268" y="450"/>
      <point x="217" y="463"/>
      <point x="217" y="511" type="curve" smooth="yes"/>
      <point x="217" y="550"/>
      <point x="248" y="570"/>
      <point x="305" y="570" type="curve" smooth="yes"/>
      <point x="390" y="570"/>
      <point x="485" y="513"/>
      <point x="494" y="502" type="curve"/>
    </contour>
  </outline>
</glyph>
<glyph name="uni0408" format="1">
  <advance width="497"/>
  <unicode hex="0408"/>
  <outline>
    <contour>
      <point x="4" y="33" type="line"/>
      <point x="46" y="4"/>
      <point x="97" y="-11"/>
      <point x="158" y="-11" type="curve" smooth="yes"/>
      <point x="404" y="-11"/>
      <point x="434" y="133"/>
      <point x="434" y="349" type="curve" smooth="yes"/>
      <point x="434" y="710" type="line"/>
      <point x="270" y="710" type="line"/>
      <point x="270" y="349" type="line" smooth="yes"/>
      <point x="270" y="200"/>
      <point x="257" y="135"/>
      <point x="158" y="135" type="curve" smooth="yes"/>
      <point x="101" y="135"/>
      <point x="53" y="157"/>
      <point x="40" y="167" type="curve"/>
    </contour>
  </outline>
</glyph>
<glyph name="uni040B" format="1">
  <advance width="743"/>
  <unicode hex="040B"/>
  <outline>
    <contour>
      <point x="550" y="0" type="line"/>
      <point x="711" y="0" type="line"/>
      <point x="711" y="231" type="line" smooth="yes"/>
      <point x="711" y="389"/>
      <point x="621" y="461"/>
      <point x="479" y="461" type="curve" smooth="yes"/>
      <point x="413" y="461"/>
      <point x="354" y="448"/>
      <point x="312" y="425" type="curve"/>
      <point x="312" y="570" type="line"/>
      <point x="572" y="570" type="line"/>
      <point x="572" y="710" type="line"/>
      <point x="12" y="710" type="line"/>
      <point x="12" y="570" type="line"/>
      <point x="152" y="570" type="line"/>
      <point x="152" y="0" type="line"/>
      <point x="312" y="0" type="line"/>
      <point x="312" y="271" type="line"/>
      <point x="347" y="295"/>
      <point x="391" y="310"/>
      <point x="438" y="310" type="curve" smooth="yes"/>
      <point x="518" y="310"/>
      <point x="550" y="260"/>
      <point x="550" y="166" type="curve" smooth="yes"/>
    </contour>
  </outline>
</glyph>
<glyph name="uni0415" format="1">
  <advance width="602"/>
  <unicode hex="0415"/>
  <outline>
    <contour>
      <point x="235" y="144" type="line"/>
      <point x="235" y="295" type="line"/>
      <point x="515" y="295" type="line"/>
      <point x="515" y="428" type="line"/>
      <point x="235" y="428" type="line"/>
      <point x="235" y="566" type="line"/>
      <point x="561" y="566" type="line"/>
      <point x="561" y="710" type="line"/>
      <point x="71" y="710" type="line"/>
      <point x="71" y="0" type="line"/>
      <point x="570" y="0" type="line"/>
      <point x="570" y="144" type="line"/>
    </contour>
  </outline>
</glyph>
<glyph name="uni0419" format="1">
  <advance width="763"/>
  <unicode hex="0419"/>
  <outline>
    <contour>
      <point x="492" y="916" type="line"/>
      <point x="485" y="880"/>
      <point x="446" y="853"/>
      <point x="398" y="853" type="curve" smooth="yes"/>
      <point x="348" y="853"/>
      <point x="305" y="881"/>
      <point x="305" y="916" type="curve"/>
      <point x="206" y="916" type="line"/>
      <point x="206" y="827"/>
      <point x="284" y="767"/>
      <point x="398" y="767" type="curve" smooth="yes"/>
      <point x="512" y="767"/>
      <point x="590" y="827"/>
      <point x="590" y="916" type="curve"/>
    </contour>
    <contour>
      <point x="236" y="710" type="line"/>
      <point x="71" y="710" type="line"/>
      <point x="71" y="0" type="line"/>
      <point x="198" y="0" type="line"/>
      <point x="528" y="444" type="line"/>
      <point x="528" y="0" type="line"/>
      <point x="692" y="0" type="line"/>
      <point x="692" y="710" type="line"/>
      <point x="570" y="710" type="line"/>
      <point x="236" y="255" type="line"/>
    </contour>
  </outline>
</glyph>
<glyph name="uni041B" format="1">
  <advance width="714"/>
  <unicode hex="041B"/>
  <outline>
    <contour>
      <point x="331" y="566" type="line"/>
      <point x="479" y="566" type="line"/>
      <point x="479" y="0" type="line"/>
      <point x="643" y="0" type="line"/>
      <point x="643" y="710" type="line"/>
      <point x="182" y="710" type="line"/>
      <point x="164" y="506" type="line" smooth="yes"/>
      <point x="136" y="189"/>
      <point x="108" y="147"/>
      <point x="11" y="137" type="curve"/>
      <point x="16" y="-7" type="line"/>
      <point x="228" y="-6"/>
      <point x="286" y="103"/>
      <point x="321" y="464" type="curve" smooth="yes"/>
    </contour>
  </outline>
</glyph>
<glyph name="uni041D" format="1">
  <advance width="754"/>
  <unicode hex="041D"/>
  <outline>
    <contour>
      <point x="518" y="710" type="line"/>
      <point x="518" y="435" type="line"/>
      <point x="235" y="435" type="line"/>
      <point x="235" y="710" type="line"/>
      <point x="71" y="710" type="line"/>
      <point x="71" y="0" type="line"/>
      <point x="235" y="0" type="line"/>
      <point x="235" y="291" type="line"/>
      <point x="518" y="291" type="line"/>
      <point x="518" y="0" type="line"/>
      <point x="682" y="0" type="line"/>
      <point x="682" y="710" type="line"/>
    </contour>
  </outline>
</glyph>
<glyph name="uni0420" format="1">
  <advance width="626"/>
  <unicode hex="0420"/>
  <outline>
    <contour>
      <point x="235" y="0" type="line"/>
      <point x="235" y="229" type="line"/>
      <point x="379" y="229" type="line" smooth="yes"/>
      <point x="515" y="229"/>
      <point x="606" y="346"/>
      <point x="606" y="470" type="curve" smooth="yes"/>
      <point x="606" y="588"/>
      <point x="509" y="710"/>
      <point x="374" y="710" type="curve" smooth="yes"/>
      <point x="71" y="710" type="line"/>
      <point x="71" y="0" type="line"/>
    </contour>
    <contour>
      <point x="235" y="566" type="line"/>
      <point x="363" y="566" type="line" smooth="yes"/>
      <point x="401" y="566"/>
      <point x="440" y="536"/>
      <point x="440" y="470" type="curve" smooth="yes"/>
      <point x="440" y="406"/>
      <point x="407" y="372"/>
      <point x="369" y="372" type="curve" smooth="yes"/>
      <point x="235" y="372" type="line"/>
    </contour>
  </outline>
</glyph>
<glyph name="uni0423" format="1">
  <advance width="643"/>
  <unicode hex="0423"/>
  <outline>
    <contour>
      <point x="204" y="-7" type="curve" smooth="yes"/>
      <point x="297" y="-7"/>
      <point x="343" y="43"/>
      <point x="402" y="170" type="curve" smooth="yes"/>
      <point x="652" y="710" type="line"/>
      <point x="479" y="710" type="line"/>
      <point x="335" y="358" type="line"/>
      <point x="179" y="710" type="line"/>
      <point x="-1" y="710" type="line"/>
      <point x="261" y="195" type="line"/>
      <point x="247" y="153"/>
      <point x="222" y="135"/>
      <point x="188" y="135" type="curve" smooth="yes"/>
      <point x="157" y="135"/>
      <point x="129" y="153"/>
      <point x="119" y="160" type="curve"/>
      <point x="90" y="25" type="line"/>
      <point x="121" y="2"/>
      <point x="175" y="-7"/>
    </contour>
  </outline>
</glyph>
<glyph name="uni0424" format="1">
  <advance width="804"/>
  <unicode hex="0424"/>
  <outline>
    <contour>
      <point x="325" y="-33" type="line"/>
      <point x="481" y="-33" type="line"/>
      <point x="481" y="54" type="line"/>
      <point x="684" y="78"/>
      <point x="782" y="195"/>
      <point x="782" y="365" type="curve" smooth="yes"/>
      <point x="782" y="528"/>
      <point x="689" y="653"/>
      <point x="481" y="678" type="curve"/>
      <point x="481" y="774" type="line"/>
      <point x="325" y="774" type="line"/>
      <point x="325" y="678" type="line"/>
      <point x="114" y="653"/>
      <point x="21" y="529"/>
      <point x="21" y="365" type="curve" smooth="yes"/>
      <point x="21" y="195"/>
      <point x="120" y="76"/>
      <point x="325" y="53" type="curve"/>
    </contour>
    <contour>
      <point x="481" y="204" type="curve"/>
      <point x="481" y="527" type="line"/>
      <point x="581" y="510"/>
      <point x="623" y="456"/>
      <point x="623" y="366" type="curve" smooth="yes"/>
      <point x="623" y="279"/>
      <point x="582" y="222"/>
    </contour>
    <contour>
      <point x="325" y="204" type="line"/>
      <point x="222" y="221"/>
      <point x="179" y="279"/>
      <point x="179" y="366" type="curve" smooth="yes"/>
      <point x="179" y="457"/>
      <point x="223" y="510"/>
      <point x="325" y="527" type="curve"/>
    </contour>
  </outline>
</glyph>
<glyph name="uni0428" format="1">
  <advance width="1007"/>
  <unicode hex="0428"/>
  <outline>
    <contour>
      <point x="772" y="710" type="line"/>
      <point x="772" y="144" type="line"/>
      <point x="586" y="144" type="line"/>
      <point x="586" y="710" type="line"/>
      <point x="422" y="710" type="line"/>
      <point x="422" y="144" type="line"/>
      <point x="236" y="144" type="line"/>
      <point x="236" y="710" type="line"/>
      <point x="71" y="710" type="line"/>
      <point x="71" y="0" type="line"/>
      <point x="936" y="0" type="line"/>
      <point x="936" y="710" type="line"/>
    </contour>
  </outline>
</glyph>
<glyph name="uni0439" format="1">
  <advance width="617"/>
  <unicode hex="0439"/>
  <outline>
    <contour>
      <point x="404" y="730" type="line"/>
      <point x="400" y="681"/>
      <point x="371" y="653"/>
      <point x="318" y="653" type="curve" smooth="yes"/>
      <point x="262" y="653"/>
      <point x="232" y="683"/>
      <point x="231" y="730" type="curve"/>
      <point x="146" y="730" type="line"/>
      <point x="148" y="641"/>
      <point x="217" y="583"/>
      <point x="318" y="583" type="curve" smooth="yes"/>
      <point x="419" y="583"/>
      <point x="488" y="641"/>
      <point x="489" y="730" type="curve"/>
    </contour>
    <contour>
      <point x="216" y="525" type="line"/>
      <point x="57" y="525" type="line"/>
      <point x="57" y="0" type="line"/>
      <point x="174" y="0" type="line"/>
      <point x="400" y="287" type="line"/>
      <point x="400" y="0" type="line"/>
      <point x="560" y="0" type="line"/>
      <point x="560" y="525" type="line"/>
      <point x="445" y="525" type="line"/>
      <point x="216" y="229" type="line"/>
    </contour>
  </outline>
</glyph>
<glyph name="uni043B" format="1">
  <advance width="584"/>
  <unicode hex="043B"/>
  <outline>
    <contour>
      <point x="14" y="-4" type="line"/>
      <point x="182" y="0"/>
      <point x="232" y="71"/>
      <point x="267" y="329" type="curve" smooth="yes"/>
      <point x="275" y="388" type="line"/>
      <point x="368" y="388" type="line"/>
      <point x="368" y="0" type="line"/>
      <point x="528" y="0" type="line"/>
      <point x="528" y="525" type="line"/>
      <point x="136" y="525" type="line"/>
      <point x="118" y="354" type="line" smooth="yes"/>
      <point x="98" y="174"/>
      <point x="82" y="141"/>
      <point x="10" y="138" type="curve"/>
    </contour>
  </outline>
</glyph>
<glyph name="uni043D" format="1">
  <advance width="609"/>
  <unicode hex="043D"/>
  <outline>
    <contour>
      <point x="216" y="525" type="line"/>
      <point x="57" y="525" type="line"/>
      <point x="57" y="0" type="line"/>
      <point x="216" y="0" type="line"/>
      <point x="216" y="200" type="line"/>
      <point x="393" y="200" type="line"/>
      <point x="393" y="0" type="line"/>
      <point x="552" y="0" type="line"/>
      <point x="552" y="525" type="line"/>
      <point x="393" y="525" type="line"/>
      <point x="393" y="338" type="line"/>
      <point x="216" y="338" type="line"/>
    </contour>
  </outline>
</glyph>
<glyph name="uni0440" format="1">
  <advance width="641"/>
  <unicode hex="0440"/>
  <outline>
    <contour>
      <point x="389" y="-10" type="curve" smooth="yes"/>
      <point x="521" y="-10"/>
      <point x="616" y="108"/>
      <point x="616" y="264" type="curve" smooth="yes"/>
      <point x="616" y="416"/>
      <point x="513" y="535"/>
      <point x="372" y="535" type="curve" smooth="yes"/>
      <point x="293" y="535"/>
      <point x="234" y="499"/>
      <point x="196" y="440" type="curve"/>
      <point x="196" y="525" type="line"/>
      <point x="57" y="525" type="line"/>
      <point x="57" y="-213" type="line"/>
      <point x="217" y="-213" type="line"/>
      <point x="217" y="85" type="line"/>
      <point x="249" y="26"/>
      <point x="310" y="-10"/>
    </contour>
    <contour>
      <point x="335" y="125" type="curve" smooth="yes"/>
      <point x="286" y="125"/>
      <point x="238" y="166"/>
      <point x="217" y="219" type="curve"/>
      <point x="217" y="327" type="line"/>
      <point x="238" y="371"/>
      <point x="283" y="399"/>
      <point x="327" y="399" type="curve" smooth="yes"/>
      <point x="400" y="399"/>
      <point x="453" y="342"/>
      <point x="453" y="265" type="curve" smooth="yes"/>
      <point x="453" y="190"/>
      <point x="404" y="125"/>
    </contour>
  </outline>
</glyph>
<glyph name="uni0443" format="1">
  <advance width="552"/>
  <unicode hex="0443"/>
  <outline>
    <contour>
      <point x="80" y="-216" type="line"/>
      <point x="103" y="-227"/>
      <point x="129" y="-231"/>
      <point x="156" y="-231" type="curve" smooth="yes"/>
      <point x="247" y="-231"/>
      <point x="314" y="-178"/>
      <point x="351" y="-66" type="curve" smooth="yes"/>
      <point x="544" y="525" type="line"/>
      <point x="394" y="525" type="line"/>
      <point x="289" y="137" type="line"/>
      <point x="167" y="525" type="line"/>
      <point x="2" y="525" type="line"/>
      <point x="202" y="0" type="line"/>
      <point x="190" y="-70"/>
      <point x="170" y="-92"/>
      <point x="139" y="-92" type="curve" smooth="yes"/>
      <point x="124" y="-92"/>
      <point x="102" y="-89"/>
      <point x="80" y="-79" type="curve"/>
    </contour>
  </outline>
</glyph>
<glyph name="uni044F" format="1">
  <advance width="562"/>
  <unicode hex="044F"/>
  <outline>
    <contour>
      <point x="16" y="0" type="line"/>
      <point x="186" y="0" type="line"/>
      <point x="292" y="171" type="line"/>
      <point x="346" y="171" type="line"/>
      <point x="346" y="0" type="line"/>
      <point x="505" y="0" type="line"/>
      <point x="505" y="527" type="line"/>
      <point x="242" y="527" type="line" smooth="yes"/>
      <point x="131" y="527"/>
      <point x="49" y="459"/>
      <point x="49" y="348" type="curve" smooth="yes"/>
      <point x="49" y="266"/>
      <point x="86" y="217"/>
      <point x="150" y="196" type="curve"/>
    </contour>
    <contour>
      <point x="265" y="287" type="line" smooth="yes"/>
      <point x="235" y="287"/>
      <point x="211" y="309"/>
      <point x="211" y="345" type="curve" smooth="yes"/>
      <point x="211" y="382"/>
      <point x="237" y="404"/>
      <point x="265" y="404" type="curve" smooth="yes"/>
      <point x="346" y="404" type="line"/>
      <point x="346" y="287" type="line"/>
    </contour>
  </outline>
</glyph>
<glyph name="uni0459" format="1">
  <advance width="842"/>
  <unicode hex="0459"/>
  <outline>
    <contour>
      <point x="15" y="-4" type="line"/>
      <point x="183" y="0"/>
      <point x="237" y="69"/>
      <point x="268" y="329" type="curve" smooth="yes"/>
      <point x="275" y="388" type="line"/>
      <point x="369" y="388" type="line"/>
      <point x="369" y="0" type="line"/>
      <point x="629" y="0" type="line" smooth="yes"/>
      <point x="747" y="0"/>
      <point x="823" y="65"/>
      <point x="823" y="176" type="curve" smooth="yes"/>
      <point x="823" y="281"/>
      <point x="743" y="345"/>
      <point x="620" y="345" type="curve" smooth="yes"/>
      <point x="528" y="345" type="line"/>
      <point x="528" y="525" type="line"/>
      <point x="137" y="525" type="line"/>
      <point x="118" y="354" type="line" smooth="yes"/>
      <point x="98" y="174"/>
      <point x="82" y="141"/>
      <point x="10" y="138" type="curve"/>
    </contour>
    <contour>
      <point x="528" y="124" type="line"/>
      <point x="528" y="226" type="line"/>
      <point x="604" y="226" type="line" smooth="yes"/>
      <point x="636" y="226"/>
      <point x="657" y="207"/>
      <point x="657" y="175" type="curve" smooth="yes"/>
      <point x="657" y="142"/>
      <point x="637" y="124"/>
      <point x="603" y="124" type="curve" smooth="yes"/>
    </contour>
  </outline>
</glyph>
<glyph name="uni0490" format="1">
  <advance width="528"/>
  <unicode hex="0490"/>
  <outline>
    <contour>
      <point x="71" y="0" type="line"/>
      <point x="235" y="0" type="line"/>
      <point x="235" y="566" type="line"/>
      <point x="518" y="566" type="line"/>
      <point x="518" y="875" type="line"/>
      <point x="383" y="875" type="line"/>
      <point x="376" y="710" type="line"/>
      <point x="71" y="710" type="line"/>
    </contour>
  </outline>
</glyph>
<glyph name="uni04B1" format="1">
  <advance width="540"/>
  <unicode hex="04B1"/>
  <outline>
    <contour>
      <point x="197" y="-213" type="line"/>
      <point x="341" y="-213" type="line"/>
      <point x="341" y="0" type="line"/>
      <point x="479" y="0" type="line"/>
      <point x="479" y="102" type="line"/>
      <point x="351" y="102" type="line"/>
      <point x="351" y="106" type="line"/>
      <point x="544" y="525" type="line"/>
      <point x="380" y="525" type="line"/>
      <point x="270" y="238" type="line"/>
      <point x="167" y="525" type="line"/>
      <point x="-4" y="525" type="line"/>
      <point x="187" y="106" type="line"/>
      <point x="187" y="102" type="line"/>
      <point x="60" y="102" type="line"/>
      <point x="60" y="0" type="line"/>
      <point x="197" y="0" type="line"/>
    </contour>
  </outline>
</glyph>
<glyph name="Hdotbelow" format="1">
  <advance width="747"/>
  <unicode hex="1E24"/>
  <outline>
    <contour>
      <point x="515" y="710" type="line"/>
      <point x="515" y="435" type="line"/>
      <point x="232" y="435" type="line"/>
      <point x="232" y="710" type="line"/>
      <point x="68" y="710" type="line"/>
      <point x="68" y="0" type="line"/>
      <point x="232" y="0" type="line"/>
      <point x="232" y="291" type="line"/>
      <point x="515" y="291" type="line"/>
      <point x="515" y="0" type="line"/>
      <point x="679" y="0" type="line"/>
      <point x="679" y="710" type="line"/>
    </contour>
    <contour>
      <point x="444" y="-204" type="line"/>
      <point x="444" y="-67" type="line"/>
      <point x="300" y="-67" type="line"/>
      <point x="300" y="-204" type="line"/>
    </contour>
  </outline>
</glyph>
<glyph name="rdotbelow" format="1">
  <advance width="400"/>
  <unicode hex="1E5B"/>
  <outline>
    <contour>
      <point x="388" y="532" type="line"/>
      <point x="382" y="533"/>
      <point x="376" y="533"/>
      <point x="362" y="533" type="curve" smooth="yes"/>
      <point x="299" y="532"/>
      <point x="238" y="489"/>
      <point x="202" y="419" type="curve"/>
      <point x="202" y="525" type="line"/>
      <point x="55" y="525" type="line"/>
      <point x="55" y="0" type="line"/>
      <point x="215" y="0" type="line"/>
      <point x="215" y="315" type="line"/>
      <point x="243" y="363"/>
      <point x="311" y="387"/>
      <point x="388" y="388" type="curve"/>
    </contour>
    <contour>
      <point x="207" y="-204" type="line"/>
      <point x="207" y="-67" type="line"/>
      <point x="63" y="-67" type="line"/>
      <point x="63" y="-204" type="line"/>
    </contour>
  </outline>
</glyph>
<glyph name="Zdotbelow" format="1">
  <advance width="625"/>
  <unicode hex="1E92"/>
  <outline>
    <contour>
      <point x="28" y="0" type="line"/>
      <point x="591" y="0" type="line"/>
      <point x="591" y="144" type="line"/>
      <point x="235" y="144" type="line"/>
      <point x="587" y="587" type="line"/>
      <point x="587" y="710" type="line"/>
      <point x="42" y="710" type="line"/>
      <point x="42" y="566" type="line"/>
      <point x="398" y="566" type="line"/>
      <point x="28" y="123" type="line"/>
    </contour>
    <contour>
      <point x="388" y="-204" type="line"/>
      <point x="388" y="-67" type="line"/>
      <point x="244" y="-67" type="line"/>
      <point x="244" y="-204" type="line"/>
    </contour>
  </outline>
</glyph>
<glyph name="idotbelow" format="1">
  <advance width="270"/>
  <unicode hex="1ECB"/>
  <outline>
    <contour>
      <point x="215" y="0" type="line"/>
      <point x="215" y="525" type="line"/>
      <point x="55" y="525" type="line"/>
      <point x="55" y="0" type="line"/>
    </contour>
    <contour>
      <point x="215" y="585" type="line"/>
      <point x="215" y="730" type="line"/>
      <point x="55" y="730" type="line"/>
      <point x="55" y="585" type="line"/>
    </contour>
    <contour>
      <point x="205" y="-204" type="line"/>
      <point x="205" y="-67" type="line"/>
      <point x="61" y="-67" type="line"/>
      <point x="61" y="-204" type="line"/>
    </contour>
  </outline>
</glyph>
<glyph name="Udotbelow" format="1">
  <advance width="747"/>
  <unicode hex="1EE4"/>
  <outline>
    <contour>
      <point x="373" y="140" type="curve" smooth="yes"/>
      <point x="262" y="140"/>
      <point x="222" y="239"/>
      <point x="222" y="347" type="curve" smooth="yes"/>
      <point x="222" y="710" type="line"/>
      <point x="58" y="710" type="line"/>
      <point x="58" y="347" type="line" smooth="yes"/>
      <point x="58" y="161"/>
      <point x="146" y="-6"/>
      <point x="373" y="-6" type="curve" smooth="yes"/>
      <point x="592" y="-6"/>
      <point x="688" y="151"/>
      <point x="688" y="347" type="curve" smooth="yes"/>
      <point x="688" y="710" type="line"/>
      <point x="524" y="710" type="line"/>
      <point x="524" y="347" type="line" smooth="yes"/>
      <point x="524" y="242"/>
      <point x="486" y="140"/>
    </contour>
    <contour>
      <point x="443" y="-204" type="line"/>
      <point x="443" y="-67" type="line"/>
      <point x="299" y="-67" type="line"/>
      <point x="299" y="-204" type="line"/>
    </contour>
  </outline>
</glyph>
<glyph name="quotedblleft" format="1">
  <advance width="484"/>
  <unicode hex="201C"/>
  <outline>
    <contour>
      <point x="91" y="730" type="line"/>
      <point x="53" y="607" type="line"/>
      <point x="53" y="457" type="line"/>
      <point x="216" y="457" type="line"/>
      <point x="216" y="604" type="line"/>
      <point x="171" y="604" type="line"/>
      <point x="195" y="730" type="line"/>
    </contour>
    <contour>
      <point x="307" y="730" type="line"/>
      <point x="269" y="607" type="line"/>
      <point x="269" y="457" type="line"/>
      <point x="432" y="457" type="line"/>
      <point x="432" y="604" type="line"/>
      <point x="387" y="604" type="line"/>
      <point x="411" y="730" type="line"/>
    </contour>
  </outline>
</glyph>
<glyph name="quotedblright" format="1">
  <advance width="474"/>
  <unicode hex="201D"/>
  <outline>
    <contour>
      <point x="174" y="467" type="line"/>
      <point x="212" y="590" type="line"/>
      <point x="212" y="740" type="line"/>
      <point x="49" y="740" type="line"/>
      <point x="49" y="593" type="line"/>
      <point x="94" y="593" type="line"/>
      <point x="70" y="467" type="line"/>
    </contour>
    <contour>
      <point x="390" y="467" type="line"/>
      <point x="428" y="590" type="line"/>
      <point x="428" y="740" type="line"/>
      <point x="265" y="740" type="line"/>
      <point x="265" y="593" type="line"/>
      <point x="310" y="593" type="line"/>
      <point x="286" y="467" type="line"/>
    </contour>
  </outline>
</glyph>
<glyph name="quotedblbase" format="1">
  <advance width="480"/>
  <unicode hex="201E"/>
  <outline>
    <contour>
      <point x="179" y="-140" type="line"/>
      <point x="218" y="-4" type="line"/>
      <point x="218" y="163" type="line"/>
      <point x="54" y="163" type="line"/>
      <point x="54" y="0" type="line"/>
      <point x="100" y="0" type="line"/>
      <point x="75" y="-140" type="line"/>
    </contour>
    <contour>
      <point x="387" y="-140" type="line"/>
      <point x="425" y="-4" type="line"/>
      <point x="425" y="163" type="line"/>
      <point x="262" y="163" type="line"/>
      <point x="262" y="0" type="line"/>
      <point x="308" y="0" type="line"/>
      <point x="283" y="-140" type="line"/>
    </contour>
  </outline>
</glyph>
<glyph name="daggerdbl" format="1">
  <advance width="503"/>
  <unicode hex="2021"/>
  <outline>
    <contour>
      <point x="328" y="-130" type="line"/>
      <point x="328" y="79" type="line"/>
      <point x="459" y="79" type="line"/>
      <point x="459" y="223" type="line"/>
      <point x="328" y="223" type="line"/>
      <point x="328" y="335" type="line"/>
      <point x="459" y="335" type="line"/>
      <point x="459" y="479" type="line"/>
      <point x="328" y="479" type="line"/>
      <point x="328" y="775" type="line"/>
      <point x="176" y="775" type="line"/>
      <point x="176" y="479" type="line"/>
      <point x="44" y="479" type="line"/>
      <point x="44" y="335" type="line"/>
      <point x="176" y="335" type="line"/>
      <point x="176" y="223" type="line"/>
      <point x="44" y="223" type="line"/>
      <point x="44" y="79" type="line"/>
      <point x="176" y="79" type="line"/>
      <point x="176" y="-130" type="line"/>
    </contour>
  </outline>
</glyph>
<glyph name="guilsinglright" format="1">
  <advance width="360"/>
  <unicode hex="203A"/>
  <outline>
    <contour>
      <point x="327" y="293" type="line"/>
      <point x="57" y="486" type="line"/>
      <point x="57" y="357" type="line"/>
      <point x="201" y="259" type="line"/>
      <point x="57" y="168" type="line"/>
      <point x="57" y="39" type="line"/>
      <point x="327" y="217" type="line"/>
    </contour>
  </outline>
</glyph>
<glyph name="threeinferior" format="1">
  <advance width="414"/>
  <unicode hex="2083"/>
  <outline>
    <contour>
      <point x="193" y="-93" type="curve" smooth="yes"/>
      <point x="288" y="-93"/>
      <point x="382" y="-57"/>
      <point x="382" y="31" type="curve" smooth="yes"/>
      <point x="382" y="85"/>
      <point x="342" y="133"/>
      <point x="276" y="142" type="curve"/>
      <point x="336" y="151"/>
      <point x="372" y="184"/>
      <point x="372" y="231" type="curve" smooth="yes"/>
      <point x="372" y="298"/>
      <point x="296" y="349"/>
      <point x="195" y="349" type="curve" smooth="yes"/>
      <point x="128" y="349"/>
      <point x="57" y="328"/>
      <point x="25" y="291" type="curve"/>
      <point x="85" y="215" type="line"/>
      <point x="111" y="243"/>
      <point x="144" y="262"/>
      <point x="196" y="262" type="curve" smooth="yes"/>
      <point x="228" y="262"/>
      <point x="273" y="252"/>
      <point x="273" y="225" type="curve" smooth="yes"/>
      <point x="273" y="192"/>
      <point x="217" y="179"/>
      <point x="139" y="179" type="curve" smooth="yes"/>
      <point x="115" y="179" type="line"/>
      <point x="115" y="94" type="line"/>
      <point x="139" y="94" type="line" smooth="yes"/>
      <point x="232" y="94"/>
      <point x="288" y="80"/>
      <point x="288" y="45" type="curve" smooth="yes"/>
      <point x="288" y="15"/>
      <point x="243" y="1"/>
      <point x="191" y="1" type="curve" smooth="yes"/>
      <point x="132" y="1"/>
      <point x="94" y="28"/>
      <point x="75" y="53" type="curve"/>
      <point x="26" y="-17" type="line"/>
      <point x="48" y="-68"/>
      <point x="110" y="-93"/>
    </contour>
  </outline>
</glyph>
<glyph name="franc" format="1">
  <advance width="608"/>
  <unicode hex="20A3"/>
  <outline>
    <contour>
      <point x="271" y="0" type="line"/>
      <point x="271" y="91" type="line"/>
      <point x="380" y="91" type="line"/>
      <point x="380" y="196" type="line"/>
      <point x="271" y="196" type="line"/>
      <point x="271" y="280" type="line"/>
      <point x="533" y="280" type="line"/>
      <point x="533" y="413" type="line"/>
      <point x="271" y="413" type="line"/>
      <point x="271" y="566" type="line"/>
      <point x="589" y="566" type="line"/>
      <point x="589" y="710" type="line"/>
      <point x="107" y="710" type="line"/>
      <point x="107" y="196" type="line"/>
      <point x="33" y="196" type="line"/>
      <point x="33" y="91" type="line"/>
      <point x="107" y="91" type="line"/>
      <point x="107" y="0" type="line"/>
    </contour>
  </outline>
</glyph>
<glyph name="uni20B9" format="1">
  <advance width="555"/>
  <unicode hex="20B9"/>
  <outline>
    <contour>
      <point x="518" y="542" type="line"/>
      <point x="406" y="542" type="line"/>
      <point x="398" y="566"/>
      <point x="387" y="589"/>
      <point x="372" y="610" type="curve"/>
      <point x="518" y="610" type="line"/>
      <point x="518" y="710" type="line"/>
      <point x="41" y="710" type="line"/>
      <point x="41" y="581" type="line"/>
      <point x="175" y="581" type="line" smooth="yes"/>
      <point x="196" y="581"/>
      <point x="218" y="566"/>
      <point x="233" y="542" type="curve"/>
      <point x="41" y="542" type="line"/>
      <point x="41" y="442" type="line"/>
      <point x="250" y="442" type="line"/>
      <point x="242" y="391"/>
      <point x="213" y="358"/>
      <point x="181" y="358" type="curve" smooth="yes"/>
      <point x="49" y="358" type="line"/>
      <point x="280" y="0" type="line"/>
      <point x="466" y="0" type="line"/>
      <point x="288" y="264" type="line"/>
      <point x="359" y="299"/>
      <point x="406" y="366"/>
      <point x="416" y="442" type="curve"/>
      <point x="518" y="442" type="line"/>
    </contour>
  </outline>
</glyph>
<glyph name="servicemark" format="1">
  <advance width="818"/>
  <unicode hex="2120"/>
  <outline>
    <contour>
      <point x="558" y="565" type="line"/>
      <point x="510" y="710" type="line"/>
      <point x="358" y="710" type="line"/>
      <point x="358" y="407" type="line"/>
      <point x="460" y="407" type="line"/>
      <point x="460" y="581" type="line"/>
      <point x="517" y="449" type="line"/>
      <point x="600" y="449" type="line"/>
      <point x="657" y="581" type="line"/>
      <point x="657" y="407" type="line"/>
      <point x="759" y="407" type="line"/>
      <point x="759" y="710" type="line"/>
      <point x="605" y="710" type="line"/>
    </contour>
    <contour>
      <point x="310" y="682" type="line"/>
      <point x="267" y="703"/>
      <point x="222" y="716"/>
      <point x="181" y="716" type="curve" smooth="yes"/>
      <point x="106" y="716"/>
      <point x="53" y="675"/>
      <point x="53" y="614" type="curve" smooth="yes"/>
      <point x="53" y="565"/>
      <point x="83" y="544"/>
      <point x="165" y="523" type="curve" smooth="yes"/>
      <point x="212" y="511"/>
      <point x="227" y="505"/>
      <point x="227" y="493" type="curve" smooth="yes"/>
      <point x="227" y="484"/>
      <point x="214" y="479"/>
      <point x="189" y="479" type="curve" smooth="yes"/>
      <point x="153" y="479"/>
      <point x="113" y="493"/>
      <point x="78" y="514" type="curve"/>
      <point x="39" y="440" type="line"/>
      <point x="78" y="417"/>
      <point x="139" y="401"/>
      <point x="191" y="401" type="curve" smooth="yes"/>
      <point x="269" y="401"/>
      <point x="321" y="436"/>
      <point x="321" y="498" type="curve" smooth="yes"/>
      <point x="321" y="551"/>
      <point x="288" y="577"/>
      <point x="201" y="594" type="curve" smooth="yes"/>
      <point x="155" y="603"/>
      <point x="144" y="611"/>
      <point x="144" y="623" type="curve" smooth="yes"/>
      <point x="144" y="634"/>
      <point x="157" y="639"/>
      <point x="180" y="639" type="curve" smooth="yes"/>
      <point x="210" y="639"/>
      <point x="239" y="628"/>
      <point x="273" y="610" type="curve"/>
    </contour>
  </outline>
</glyph>
<glyph name="estimated" format="1">
  <advance width="613"/>
  <unicode hex="212E"/>
  <outline>
    <contour>
      <point x="312" y="41" type="curve" smooth="yes"/>
      <point x="256" y="41"/>
      <point x="202" y="67"/>
      <point x="167" y="104" type="curve"/>
      <point x="167" y="241" type="line"/>
      <point x="594" y="241" type="line"/>
      <point x="594" y="405"/>
      <point x="480" y="535"/>
      <point x="312" y="535" type="curve" smooth="yes"/>
      <point x="145" y="535"/>
      <point x="31" y="410"/>
      <point x="31" y="260" type="curve" smooth="yes"/>
      <point x="31" y="115"/>
      <point x="143" y="-10"/>
      <point x="312" y="-10" type="curve" smooth="yes"/>
      <point x="419" y="-10"/>
      <point x="495" y="26"/>
      <point x="545" y="73" type="curve"/>
      <point x="512" y="112" type="line"/>
      <point x="472" y="74"/>
      <point x="408" y="41"/>
    </contour>
    <contour>
      <point x="312" y="483" type="curve" smooth="yes"/>
      <point x="369" y="483"/>
      <point x="423" y="458"/>
      <point x="459" y="409" type="curve"/>
      <point x="459" y="295" type="line"/>
      <point x="167" y="295" type="line"/>
      <point x="167" y="410" type="line"/>
      <point x="202" y="458"/>
      <point x="256" y="483"/>
    </contour>
  </outline>
</glyph>
<glyph name="threeeighths" format="1">
  <advance width="1003"/>
  <unicode hex="215C"/>
  <outline>
    <contour>
      <point x="206" y="289" type="curve" smooth="yes"/>
      <point x="301" y="289"/>
      <point x="395" y="326"/>
      <point x="395" y="413" type="curve" smooth="yes"/>
      <point x="395" y="468"/>
      <point x="355" y="515"/>
      <point x="289" y="524" type="curve"/>
      <point x="349" y="534"/>
      <point x="385" y="566"/>
      <point x="385" y="613" type="curve" smooth="yes"/>
      <point x="385" y="680"/>
      <point x="309" y="731"/>
      <point x="208" y="731" type="curve" smooth="yes"/>
      <point x="141" y="731"/>
      <point x="70" y="711"/>
      <point x="38" y="673" type="curve"/>
      <point x="98" y="598" type="line"/>
      <point x="124" y="626"/>
      <point x="157" y="645"/>
      <point x="209" y="645" type="curve" smooth="yes"/>
      <point x="241" y="645"/>
      <point x="286" y="635"/>
      <point x="286" y="608" type="curve" smooth="yes"/>
      <point x="286" y="574"/>
      <point x="230" y="561"/>
      <point x="152" y="561" type="curve" smooth="yes"/>
      <point x="128" y="561" type="line"/>
      <point x="128" y="476" type="line"/>
      <point x="152" y="476" type="line" smooth="yes"/>
      <point x="245" y="476"/>
      <point x="301" y="462"/>
      <point x="301" y="427" type="curve" smooth="yes"/>
      <point x="301" y="397"/>
      <point x="256" y="383"/>
      <point x="204" y="383" type="curve" smooth="yes"/>
      <point x="145" y="383"/>
      <point x="108" y="410"/>
      <point x="88" y="435" type="curve"/>
      <point x="39" y="365" type="line"/>
      <point x="61" y="315"/>
      <point x="123" y="289"/>
    </contour>
    <contour>
      <point x="268" y="-9" type="line"/>
      <point x="534" y="339" type="line"/>
      <point x="807" y="655" type="line"/>
      <point x="735" y="719" type="line"/>
      <point x="479" y="380" type="line"/>
      <point x="197" y="56" type="line"/>
    </contour>
    <contour>
      <point x="969" y="128" type="curve" smooth="yes"/>
      <point x="969" y="177"/>
      <point x="934" y="208"/>
      <point x="887" y="230" type="curve"/>
      <point x="924" y="245"/>
      <point x="953" y="273"/>
      <point x="953" y="312" type="curve" smooth="yes"/>
      <point x="953" y="382"/>
      <point x="864" y="430"/>
      <point x="784" y="430" type="curve" smooth="yes"/>
      <point x="704" y="430"/>
      <point x="616" y="381"/>
      <point x="616" y="311" type="curve" smooth="yes"/>
      <point x="616" y="270"/>
      <point x="647" y="244"/>
      <point x="682" y="230" type="curve"/>
      <point x="638" y="209"/>
      <point x="600" y="182"/>
      <point x="600" y="130" type="curve" smooth="yes"/>
      <point x="600" y="53"/>
      <point x="682" y="-6"/>
      <point x="784" y="-6" type="curve" smooth="yes"/>
      <point x="884" y="-6"/>
      <point x="969" y="50"/>
    </contour>
    <contour>
      <point x="875" y="138" type="curve" smooth="yes"/>
      <point x="875" y="108"/>
      <point x="831" y="87"/>
      <point x="785" y="87" type="curve" smooth="yes"/>
      <point x="741" y="87"/>
      <point x="694" y="107"/>
      <point x="694" y="138" type="curve" smooth="yes"/>
      <point x="694" y="168"/>
      <point x="736" y="188"/>
      <point x="784" y="188" type="curve" smooth="yes"/>
      <point x="830" y="188"/>
      <point x="875" y="169"/>
    </contour>
    <contour>
      <point x="709" y="302" type="curve" smooth="yes"/>
      <point x="709" y="325"/>
      <point x="744" y="340"/>
      <point x="784" y="340" type="curve" smooth="yes"/>
      <point x="824" y="340"/>
      <point x="860" y="325"/>
      <point x="860" y="302" type="curve" smooth="yes"/>
      <point x="860" y="278"/>
      <point x="820" y="264"/>
      <point x="784" y="264" type="curve" smooth="yes"/>
      <point x="748" y="264"/>
      <point x="709" y="278"/>
    </contour>
  </outline>
</glyph>
<glyph name="seveneighths" format="1">
  <advance width="958"/>
  <unicode hex="215E"/>
  <outline>
    <contour>
      <point x="175" y="-9" type="line"/>
      <point x="441" y="339" type="line"/>
      <point x="714" y="655" type="line"/>
      <point x="642" y="719" type="line"/>
      <point x="386" y="380" type="line"/>
      <point x="104" y="56" type="line"/>
    </contour>
    <contour>
      <point x="924" y="128" type="curve" smooth="yes"/>
      <point x="924" y="177"/>
      <point x="889" y="208"/>
      <point x="842" y="230" type="curve"/>
      <point x="879" y="245"/>
      <point x="908" y="273"/>
      <point x="908" y="312" type="curve" smooth="yes"/>
      <point x="908" y="382"/>
      <point x="819" y="430"/>
      <point x="739" y="430" type="curve" smooth="yes"/>
      <point x="659" y="430"/>
      <point x="571" y="381"/>
      <point x="571" y="311" type="curve" smooth="yes"/>
      <point x="571" y="270"/>
      <point x="602" y="244"/>
      <point x="637" y="230" type="curve"/>
      <point x="593" y="209"/>
      <point x="555" y="182"/>
      <point x="555" y="130" type="curve" smooth="yes"/>
      <point x="555" y="53"/>
      <point x="637" y="-6"/>
      <point x="739" y="-6" type="curve" smooth="yes"/>
      <point x="839" y="-6"/>
      <point x="924" y="50"/>
    </contour>
    <contour>
      <point x="830" y="138" type="curve" smooth="yes"/>
      <point x="830" y="108"/>
      <point x="786" y="87"/>
      <point x="740" y="87" type="curve" smooth="yes"/>
      <point x="696" y="87"/>
      <point x="649" y="107"/>
      <point x="649" y="138" type="curve" smooth="yes"/>
      <point x="649" y="168"/>
      <point x="691" y="188"/>
      <point x="739" y="188" type="curve" smooth="yes"/>
      <point x="785" y="188"/>
      <point x="830" y="169"/>
    </contour>
    <contour>
      <point x="664" y="302" type="curve" smooth="yes"/>
      <point x="664" y="325"/>
      <point x="699" y="340"/>
      <point x="739" y="340" type="curve" smooth="yes"/>
      <point x="779" y="340"/>
      <point x="815" y="325"/>
      <point x="815" y="302" type="curve" smooth="yes"/>
      <point x="815" y="278"/>
      <point x="775" y="264"/>
      <point x="739" y="264" type="curve" smooth="yes"/>
      <point x="703" y="264"/>
      <point x="664" y="278"/>
    </contour>
    <contour>
      <point x="63" y="301" type="line"/>
      <point x="168" y="301" type="line"/>
      <point x="421" y="731" type="line"/>
      <point x="41" y="731" type="line"/>
      <point x="41" y="638" type="line"/>
      <point x="275" y="638" type="line"/>
    </contour>
  </outline>
</glyph>
<glyph name="product" format="1">
  <advance width="724"/>
  <unicode hex="220F"/>
  <outline>
    <contour>
      <point x="457" y="-90" type="line"/>
      <point x="612" y="-90" type="line"/>
      <point x="612" y="574" type="line"/>
      <point x="692" y="574" type="line"/>
      <point x="692" y="710" type="line"/>
      <point x="31" y="710" type="line"/>
      <point x="31" y="574" type="line"/>
      <point x="111" y="574" type="line"/>
      <point x="111" y="-90" type="line"/>
      <point x="267" y="-90" type="line"/>
      <point x="267" y="574" type="line"/>
      <point x="457" y="574" type="line"/>
    </contour>
  </outline>
</glyph>
<glyph name="E.sc" format="1">
  <advance width="537"/>
  <outline>
    <contour>
      <point x="341" y="707" type="move" name="top"/>
    </contour>
    <contour>
      <point x="341" y="0" type="move" name="bottom"/>
    </contour>
    <contour>
      <point x="206" y="125" type="line"/>
      <point x="206" y="228" type="line"/>
      <point x="455" y="228" type="line"/>
      <point x="455" y="345" type="line"/>
      <point x="206" y="345" type="line"/>
      <point x="206" y="438" type="line"/>
      <point x="496" y="438" type="line"/>
      <point x="496" y="563" type="line"/>
      <point x="62" y="563" type="line"/>
      <point x="62" y="0" type="line"/>
      <point x="504" y="0" type="line"/>
      <point x="504" y="125" type="line"/>
    </contour>
  </outline>
</glyph>
<glyph name="F.sc" format="1">
  <advance width="509"/>
  <outline>
    <contour>
      <point x="206" y="0" type="line"/>
      <point x="206" y="215" type="line"/>
      <point x="440" y="215" type="line"/>
      <point x="440" y="332" type="line"/>
      <point x="206" y="332" type="line"/>
      <point x="206" y="438" type="line"/>
      <point x="488" y="438" type="line"/>
      <point x="488" y="563" type="line"/>
      <point x="62" y="563" type="line"/>
      <point x="62" y="0" type="line"/>
    </contour>
  </outline>
</glyph>
<glyph name="G.sc" format="1">
  <advance width="621"/>
  <outline>
    <contour>
      <point x="361" y="707" type="move" name="top"/>
    </contour>
    <contour>
      <point x="373" y="0" type="move" name="bottom"/>
    </contour>
    <contour>
      <point x="463" y="0" type="line"/>
      <point x="583" y="0" type="line"/>
      <point x="583" y="297" type="line"/>
      <point x="343" y="297" type="line"/>
      <point x="343" y="194" type="line"/>
      <point x="463" y="194" type="line"/>
      <point x="463" y="189" type="line"/>
      <point x="423" y="147"/>
      <point x="375" y="124"/>
      <point x="325" y="124" type="curve" smooth="yes"/>
      <point x="237" y="124"/>
      <point x="173" y="189"/>
      <point x="173" y="281" type="curve" smooth="yes"/>
      <point x="173" y="371"/>
      <point x="233" y="439"/>
      <point x="319" y="439" type="curve" smooth="yes"/>
      <point x="375" y="439"/>
      <point x="428" y="410"/>
      <point x="453" y="363" type="curve"/>
      <point x="561" y="444" type="line"/>
      <point x="520" y="519"/>
      <point x="434" y="567"/>
      <point x="325" y="567" type="curve" smooth="yes"/>
      <point x="156" y="567"/>
      <point x="27" y="443"/>
      <point x="27" y="286" type="curve" smooth="yes"/>
      <point x="27" y="131"/>
      <point x="157" y="-4"/>
      <point x="313" y="-4" type="curve" smooth="yes"/>
      <point x="370" y="-4"/>
      <point x="418" y="12"/>
      <point x="463" y="50" type="curve"/>
    </contour>
  </outline>
</glyph>
<glyph name="I.sc" format="1">
  <advance width="268"/>
  <outline>
    <contour>
      <point x="106" y="707" type="move" name="top"/>
    </contour>
    <contour>
      <point x="107" y="0" type="move" name="bottom"/>
    </contour>
    <contour>
      <point x="206" y="0" type="line"/>
      <point x="206" y="563" type="line"/>
      <point x="62" y="563" type="line"/>
      <point x="62" y="0" type="line"/>
    </contour>
  </outline>
</glyph>
<glyph name="W.alt" format="1">
  <advance width="1128"/>
  <outline>
    <contour>
      <point x="936" y="711" type="line"/>
      <point x="800" y="248" type="line"/>
      <point x="652" y="710" type="line"/>
      <point x="473" y="710" type="line"/>
      <point x="328" y="247" type="line"/>
      <point x="191" y="710" type="line"/>
      <point x="5" y="710" type="line"/>
      <point x="226" y="0" type="line"/>
      <point x="396" y="0" type="line"/>
      <point x="563" y="442" type="line"/>
      <point x="732" y="1" type="line"/>
      <point x="902" y="1" type="line"/>
      <point x="1123" y="711" type="line"/>
    </contour>
  </outline>
</glyph>
<glyph name="a.alt" format="1">
  <advance width="641"/>
  <outline>
    <contour>
      <point x="273" y="-10" type="curve" smooth="yes"/>
      <point x="346" y="-10"/>
      <point x="395" y="21"/>
      <point x="427" y="78" type="curve"/>
      <point x="427" y="0" type="line"/>
      <point x="586" y="0" type="line"/>
      <point x="586" y="518" type="line"/>
      <point x="426" y="518" type="line"/>
      <point x="426" y="439" type="line"/>
      <point x="394" y="497"/>
      <point x="331" y="535"/>
      <point x="257" y="535" type="curve" smooth="yes"/>
      <point x="124" y="535"/>
      <point x="25" y="416"/>
      <point x="25" y="263" type="curve" smooth="yes"/>
      <point x="25" y="107"/>
      <point x="128" y="-10"/>
    </contour>
    <contour>
      <point x="427" y="198" type="line"/>
      <point x="401" y="153"/>
      <point x="364" y="125"/>
      <point x="315" y="125" type="curve" smooth="yes"/>
      <point x="242" y="125"/>
      <point x="190" y="183"/>
      <point x="190" y="260" type="curve" smooth="yes"/>
      <point x="190" y="332"/>
      <point x="240" y="399"/>
      <point x="308" y="399" type="curve" smooth="yes"/>
      <point x="358" y="399"/>
      <point x="405" y="362"/>
      <point x="427" y="307" type="curve"/>
    </contour>
  </outline>
</glyph>
<glyph name="five.numerator" format="1">
  <advance width="402"/>
  <outline>
    <contour>
      <point x="209" y="580" type="curve" smooth="yes"/>
      <point x="175" y="580"/>
      <point x="153" y="573"/>
      <point x="140" y="567" type="curve"/>
      <point x="161" y="638" type="line"/>
      <point x="343" y="638" type="line"/>
      <point x="343" y="731" type="line"/>
      <point x="94" y="731" type="line"/>
      <point x="80" y="653"/>
      <point x="50" y="549"/>
      <point x="35" y="467" type="curve"/>
      <point x="116" y="467" type="line"/>
      <point x="131" y="493"/>
      <point x="169" y="511"/>
      <point x="202" y="511" type="curve" smooth="yes"/>
      <point x="237" y="511"/>
      <point x="281" y="492"/>
      <point x="281" y="446" type="curve" smooth="yes"/>
      <point x="281" y="403"/>
      <point x="242" y="384"/>
      <point x="193" y="384" type="curve" smooth="yes"/>
      <point x="144" y="384"/>
      <point x="103" y="401"/>
      <point x="76" y="428" type="curve"/>
      <point x="22" y="365" type="line"/>
      <point x="53" y="321"/>
      <point x="116" y="294"/>
      <point x="187" y="294" type="curve" smooth="yes"/>
      <point x="297" y="294"/>
      <point x="377" y="355"/>
      <point x="377" y="442" type="curve" smooth="yes"/>
      <point x="377" y="523"/>
      <point x="304" y="580"/>
    </contour>
  </outline>
</glyph>
<glyph name="one.denominator" format="1">
  <advance width="350"/>
  <outline>
    <contour>
      <point x="241" y="91" type="line"/>
      <point x="241" y="434" type="line"/>
      <point x="147" y="434" type="line"/>
      <point x="146" y="431"/>
      <point x="82" y="375"/>
      <point x="31" y="375" type="curve"/>
      <point x="31" y="282" type="line"/>
      <point x="70" y="282"/>
      <point x="131" y="315"/>
      <point x="147" y="334" type="curve"/>
      <point x="147" y="91" type="line"/>
      <point x="48" y="91" type="line"/>
      <point x="48" y="0" type="line"/>
      <point x="333" y="0" type="line"/>
      <point x="333" y="91" type="line"/>
    </contour>
  </outline>
</glyph>
<glyph name="two.denominator" format="1">
  <advance width="434"/>
  <outline>
    <contour>
      <point x="397" y="0" type="line"/>
      <point x="397" y="91" type="line"/>
      <point x="182" y="91" type="line"/>
      <point x="182" y="120"/>
      <point x="210" y="142"/>
      <point x="268" y="159" type="curve" smooth="yes"/>
      <point x="320" y="174"/>
      <point x="396" y="208"/>
      <point x="396" y="296" type="curve" smooth="yes"/>
      <point x="396" y="385"/>
      <point x="336" y="435"/>
      <point x="226" y="435" type="curve" smooth="yes"/>
      <point x="125" y="435"/>
      <point x="56" y="398"/>
      <point x="31" y="366" type="curve"/>
      <point x="90" y="297" type="line"/>
      <point x="114" y="320"/>
      <point x="156" y="344"/>
      <point x="211" y="344" type="curve" smooth="yes"/>
      <point x="261" y="344"/>
      <point x="291" y="330"/>
      <point x="291" y="297" type="curve" smooth="yes"/>
      <point x="291" y="249"/>
      <point x="224" y="230"/>
      <point x="161" y="204" type="curve" smooth="yes"/>
      <point x="59" y="161"/>
      <point x="28" y="111"/>
      <point x="28" y="0" type="curve"/>
    </contour>
  </outline>
</glyph>
<glyph name="two.lnum" format="1">
  <advance width="619"/>
  <outline>
    <contour>
      <point x="569" y="0" type="line"/>
      <point x="569" y="144" type="line"/>
      <point x="264" y="144" type="line"/>
      <point x="264" y="201"/>
      <point x="326" y="237"/>
      <point x="409" y="279" type="curve" smooth="yes"/>
      <point x="502" y="326"/>
      <point x="568" y="380"/>
      <point x="568" y="496" type="curve" smooth="yes"/>
      <point x="568" y="633"/>
      <point x="480" y="718"/>
      <point x="322" y="718" type="curve" smooth="yes"/>
      <point x="186" y="718"/>
      <point x="84" y="653"/>
      <point x="40" y="603" type="curve"/>
      <point x="140" y="497" type="line"/>
      <point x="176" y="534"/>
      <point x="236" y="576"/>
      <point x="300" y="576" type="curve" smooth="yes"/>
      <point x="351" y="576"/>
      <point x="386" y="548"/>
      <point x="386" y="494" type="curve" smooth="yes"/>
      <point x="386" y="413"/>
      <point x="303" y="376"/>
      <point x="218" y="336" type="curve" smooth="yes"/>
      <point x="74" y="268"/>
      <point x="39" y="185"/>
      <point x="39" y="0" type="curve"/>
    </contour>
  </outline>
</glyph>
<glyph name="zero.numerator" format="1">
  <advance width="498"/>
  <outline>
    <contour>
      <point x="250" y="294" type="curve" smooth="yes"/>
      <point x="386" y="294"/>
      <point x="469" y="407"/>
      <point x="469" y="512" type="curve" smooth="yes"/>
      <point x="469" y="606"/>
      <point x="394" y="730"/>
      <point x="250" y="730" type="curve" smooth="yes"/>
      <point x="113" y="730"/>
      <point x="29" y="616"/>
      <point x="29" y="512" type="curve" smooth="yes"/>
      <point x="29" y="415"/>
      <point x="104" y="294"/>
    </contour>
    <contour>
      <point x="125" y="512" type="curve" smooth="yes"/>
      <point x="125" y="565"/>
      <point x="162" y="637"/>
      <point x="250" y="637" type="curve" smooth="yes"/>
      <point x="331" y="637"/>
      <point x="374" y="570"/>
      <point x="374" y="512" type="curve" smooth="yes"/>
      <point x="374" y="460"/>
      <point x="336" y="387"/>
      <point x="250" y="387" type="curve" smooth="yes"/>
      <point x="165" y="387"/>
      <point x="125" y="454"/>
    </contour>
  </outline>
</glyph>
